solid OpenSCAD_Model
  facet normal -0.7518398074789777 -0.6593458151000687 0
    outer loop
      vertex -8.885557411261834 -6.818128004897671 0
      vertex -7.919595949289333 -7.919595949289333 0
      vertex -8.885557411261834 -6.818128004897671 14.8
    endloop
  endfacet
  facet normal -0.8314696123025457 -0.5555702330196014 1.8970349023177818e-18
    outer loop
      vertex -8.885557411261834 -6.818128004897671 0
      vertex -9.699484522385712 -5.6 14.8
      vertex -9.699484522385712 -5.6 0
    endloop
  endfacet
  facet normal -0.6593458151000687 -0.7518398074789777 0
    outer loop
      vertex -6.818128004897671 -8.885557411261834 0
      vertex -6.818128004897671 -8.885557411261834 14.8
      vertex -7.919595949289333 -7.919595949289333 0
    endloop
  endfacet
  facet normal -0.5555702330196014 -0.8314696123025457 1.8970349023177818e-18
    outer loop
      vertex -6.818128004897671 -8.885557411261834 0
      vertex -5.6 -9.699484522385712 0
      vertex -5.6 -9.699484522385712 14.8
    endloop
  endfacet
  facet normal 0 0 -1
    outer loop
      vertex -10.34745076412641 -4.2860544424890055 0
      vertex -9.699484522385712 5.6 0
      vertex -9.699484522385712 -5.6 0
    endloop
  endfacet
  facet normal 0 0 -1
    outer loop
      vertex -10.34745076412641 -4.2860544424890055 0
      vertex -10.818369254437565 -2.8987733051482323 0
      vertex -10.34745076412641 4.2860544424890055 0
    endloop
  endfacet
  facet normal 0 0 -1
    outer loop
      vertex -10.818369254437565 -2.8987733051482323 0
      vertex -11.104182447386675 -1.4618933528645774 0
      vertex -10.818369254437565 2.8987733051482323 0
    endloop
  endfacet
  facet normal 0 0 -1
    outer loop
      vertex -8.885557411261834 -6.818128004897671 0
      vertex -9.699484522385712 -5.6 0
      vertex -8.885557411261834 6.818128004897671 0
    endloop
  endfacet
  facet normal 0 0 -1
    outer loop
      vertex -6.818128004897671 -8.885557411261834 0
      vertex -5.6 9.699484522385712 0
      vertex -5.6 -9.699484522385712 0
    endloop
  endfacet
  facet normal 0 0 -1
    outer loop
      vertex -8.885557411261834 -6.818128004897671 0
      vertex -7.919595949289333 7.919595949289333 0
      vertex -7.919595949289333 -7.919595949289333 0
    endloop
  endfacet
  facet normal 0 0 -1
    outer loop
      vertex -6.818128004897671 -8.885557411261834 0
      vertex -7.919595949289333 -7.919595949289333 0
      vertex -6.818128004897671 8.885557411261834 0
    endloop
  endfacet
  facet normal -0.8968727415326883 -0.4422886902190013 0
    outer loop
      vertex -10.34745076412641 -4.2860544424890055 0
      vertex -9.699484522385712 -5.6 0
      vertex -10.34745076412641 -4.2860544424890055 14.8
    endloop
  endfacet
  facet normal -0.9469301294951055 -0.3214394653031624 1.3513127374695888e-18
    outer loop
      vertex -10.34745076412641 -4.2860544424890055 0
      vertex -10.818369254437565 -2.8987733051482323 14.8
      vertex -10.818369254437565 -2.8987733051482323 0
    endloop
  endfacet
  facet normal -0.9807852804032307 -0.19509032201612717 1.042675215331064e-18
    outer loop
      vertex -10.818369254437565 -2.8987733051482323 0
      vertex -11.104182447386675 -1.4618933528645774 14.8
      vertex -11.104182447386675 -1.4618933528645774 0
    endloop
  endfacet
  facet normal -0.9978589232386035 -0.06540312923014366 -5.988503799981062e-19
    outer loop
      vertex -11.104182447386675 -1.4618933528645774 0
      vertex -11.2 0 14.8
      vertex -11.2 0 0
    endloop
  endfacet
  facet normal -0.4422886902190013 -0.8968727415326883 0
    outer loop
      vertex -4.2860544424890055 -10.34745076412641 0
      vertex -4.2860544424890055 -10.34745076412641 14.8
      vertex -5.6 -9.699484522385712 0
    endloop
  endfacet
  facet normal -0.3214394653031624 -0.9469301294951055 1.3513127374695888e-18
    outer loop
      vertex -4.2860544424890055 -10.34745076412641 0
      vertex -2.8987733051482323 -10.818369254437565 0
      vertex -2.8987733051482323 -10.818369254437565 14.8
    endloop
  endfacet
  facet normal -0.19509032201612717 -0.9807852804032307 1.042675215331064e-18
    outer loop
      vertex -2.8987733051482323 -10.818369254437565 0
      vertex -1.4618933528645774 -11.104182447386675 0
      vertex -1.4618933528645774 -11.104182447386675 14.8
    endloop
  endfacet
  facet normal -0.06540312923014366 -0.9978589232386035 -5.988503799981062e-19
    outer loop
      vertex -1.4618933528645774 -11.104182447386675 0
      vertex 0 -11.2 0
      vertex 0 -11.2 14.8
    endloop
  endfacet
  facet normal 0 0 -1
    outer loop
      vertex -4.2860544424890055 -10.34745076412641 0
      vertex -5.6 -9.699484522385712 0
      vertex -4.2860544424890055 10.34745076412641 0
    endloop
  endfacet
  facet normal 0 0 -1
    outer loop
      vertex -4.2860544424890055 -10.34745076412641 0
      vertex -2.8987733051482323 10.818369254437565 0
      vertex -2.8987733051482323 -10.818369254437565 0
    endloop
  endfacet
  facet normal 0 0 -1
    outer loop
      vertex -2.8987733051482323 -10.818369254437565 0
      vertex -1.4618933528645774 11.104182447386675 0
      vertex -1.4618933528645774 -11.104182447386675 0
    endloop
  endfacet
  facet normal 0 0 -1
    outer loop
      vertex -1.4618933528645774 -11.104182447386675 0
      vertex 0 11.2 0
      vertex 0 -11.2 0
    endloop
  endfacet
  facet normal -0.8314696123025457 -0.5555702330196014 0
    outer loop
      vertex -8.885557411261834 -6.818128004897671 0
      vertex -8.885557411261834 -6.818128004897671 14.8
      vertex -9.699484522385712 -5.6 14.8
    endloop
  endfacet
  facet normal -0.5555702330196014 -0.8314696123025457 0
    outer loop
      vertex -6.818128004897671 -8.885557411261834 0
      vertex -5.6 -9.699484522385712 14.8
      vertex -6.818128004897671 -8.885557411261834 14.8
    endloop
  endfacet
  facet normal -0.7518398074789777 -0.6593458151000687 0
    outer loop
      vertex -7.919595949289333 -7.919595949289333 0
      vertex -7.919595949289333 -7.919595949289333 14.8
      vertex -8.885557411261834 -6.818128004897671 14.8
    endloop
  endfacet
  facet normal -0.6593458151000687 -0.7518398074789777 0
    outer loop
      vertex -7.919595949289333 -7.919595949289333 0
      vertex -6.818128004897671 -8.885557411261834 14.8
      vertex -7.919595949289333 -7.919595949289333 14.8
    endloop
  endfacet
  facet normal 0 0 1
    outer loop
      vertex -8.885557411261834 -6.818128004897671 14.8
      vertex -7.919595949289333 -7.919595949289333 14.8
      vertex -8.573651497465942 -4.95 14.8
    endloop
  endfacet
  facet normal 0 0 1
    outer loop
      vertex -6.818128004897671 -8.885557411261834 14.8
      vertex -5.6 -9.699484522385712 14.8
      vertex -6.026738147186335 -7.854198068883228 14.8
    endloop
  endfacet
  facet normal 0 0 1
    outer loop
      vertex -6.818128004897671 -8.885557411261834 14.8
      vertex -7.000357133746821 -7.000357133746821 14.8
      vertex -7.919595949289333 -7.919595949289333 14.8
    endloop
  endfacet
  facet normal 0 0 1
    outer loop
      vertex -7.919595949289333 -7.919595949289333 14.8
      vertex -7.854198068883228 -6.026738147186335 14.8
      vertex -8.573651497465942 -4.95 14.8
    endloop
  endfacet
  facet normal 0 0 1
    outer loop
      vertex -7.919595949289333 -7.919595949289333 14.8
      vertex -7.000357133746821 -7.000357133746821 14.8
      vertex -7.854198068883228 -6.026738147186335 14.8
    endloop
  endfacet
  facet normal 0 0 1
    outer loop
      vertex -6.818128004897671 -8.885557411261834 14.8
      vertex -6.026738147186335 -7.854198068883228 14.8
      vertex -7.000357133746821 -7.000357133746821 14.8
    endloop
  endfacet
  facet normal -0.8968727415326883 -0.4422886902190013 0
    outer loop
      vertex -9.699484522385712 -5.6 0
      vertex -9.699484522385712 -5.6 14.8
      vertex -10.34745076412641 -4.2860544424890055 14.8
    endloop
  endfacet
  facet normal -0.9469301294951055 -0.3214394653031624 0
    outer loop
      vertex -10.34745076412641 -4.2860544424890055 0
      vertex -10.34745076412641 -4.2860544424890055 14.8
      vertex -10.818369254437565 -2.8987733051482323 14.8
    endloop
  endfacet
  facet normal -0.9807852804032307 -0.19509032201612717 0
    outer loop
      vertex -10.818369254437565 -2.8987733051482323 0
      vertex -10.818369254437565 -2.8987733051482323 14.8
      vertex -11.104182447386675 -1.4618933528645774 14.8
    endloop
  endfacet
  facet normal -0.9978589232386035 -0.06540312923014366 0
    outer loop
      vertex -11.104182447386675 -1.4618933528645774 0
      vertex -11.104182447386675 -1.4618933528645774 14.8
      vertex -11.2 0 14.8
    endloop
  endfacet
  facet normal 0 0 1
    outer loop
      vertex -8.885557411261834 -6.818128004897671 14.8
      vertex -9.14640737186174 -3.788565980414389 14.8
      vertex -9.699484522385712 -5.6 14.8
    endloop
  endfacet
  facet normal 0 0 1
    outer loop
      vertex -8.885557411261834 -6.818128004897671 14.8
      vertex -8.573651497465942 -4.95 14.8
      vertex -9.14640737186174 -3.788565980414389 14.8
    endloop
  endfacet
  facet normal 0 0 1
    outer loop
      vertex -9.699484522385712 -5.6 14.8
      vertex -9.14640737186174 -3.788565980414389 14.8
      vertex -9.562665680261777 -2.5623085465149553 14.8
    endloop
  endfacet
  facet normal 0 0 1
    outer loop
      vertex -9.699484522385712 -5.6 14.8
      vertex -9.562665680261777 -2.5623085465149553 14.8
      vertex -9.815304127600724 -1.2922093029785107 14.8
    endloop
  endfacet
  facet normal 0 0 1
    outer loop
      vertex -10.34745076412641 -4.2860544424890055 14.8
      vertex -10.818369254437565 2.8987733051482323 14.8
      vertex -10.818369254437565 -2.8987733051482323 14.8
    endloop
  endfacet
  facet normal 0 0 1
    outer loop
      vertex -9.699484522385712 -5.6 14.8
      vertex -9.815304127600724 -1.2922093029785107 14.8
      vertex -9.9 0 14.8
    endloop
  endfacet
  facet normal 0 0 1
    outer loop
      vertex -10.34745076412641 -4.2860544424890055 14.8
      vertex -9.699484522385712 -5.6 14.8
      vertex -10.34745076412641 4.2860544424890055 14.8
    endloop
  endfacet
  facet normal 0 0 1
    outer loop
      vertex -10.818369254437565 -2.8987733051482323 14.8
      vertex -11.104182447386675 1.4618933528645774 14.8
      vertex -11.104182447386675 -1.4618933528645774 14.8
    endloop
  endfacet
  facet normal 0 0 1
    outer loop
      vertex -9.699484522385712 -5.6 14.8
      vertex -9.9 0 14.8
      vertex -10.34745076412641 4.2860544424890055 14.8
    endloop
  endfacet
  facet normal -0.4422886902190013 -0.8968727415326883 0
    outer loop
      vertex -5.6 -9.699484522385712 0
      vertex -4.2860544424890055 -10.34745076412641 14.8
      vertex -5.6 -9.699484522385712 14.8
    endloop
  endfacet
  facet normal -0.3214394653031624 -0.9469301294951055 0
    outer loop
      vertex -4.2860544424890055 -10.34745076412641 0
      vertex -2.8987733051482323 -10.818369254437565 14.8
      vertex -4.2860544424890055 -10.34745076412641 14.8
    endloop
  endfacet
  facet normal -0.19509032201612717 -0.9807852804032307 0
    outer loop
      vertex -2.8987733051482323 -10.818369254437565 0
      vertex -1.4618933528645774 -11.104182447386675 14.8
      vertex -2.8987733051482323 -10.818369254437565 14.8
    endloop
  endfacet
  facet normal -0.06540312923014366 -0.9978589232386035 0
    outer loop
      vertex -1.4618933528645774 -11.104182447386675 0
      vertex 0 -11.2 14.8
      vertex -1.4618933528645774 -11.104182447386675 14.8
    endloop
  endfacet
  facet normal 0 0 1
    outer loop
      vertex -4.2860544424890055 -10.34745076412641 14.8
      vertex -4.95 -8.573651497465942 14.8
      vertex -5.6 -9.699484522385712 14.8
    endloop
  endfacet
  facet normal 0 0 1
    outer loop
      vertex -5.6 -9.699484522385712 14.8
      vertex -4.95 -8.573651497465942 14.8
      vertex -6.026738147186335 -7.854198068883228 14.8
    endloop
  endfacet
  facet normal 0 0 1
    outer loop
      vertex -4.2860544424890055 -10.34745076412641 14.8
      vertex -3.788565980414389 -9.14640737186174 14.8
      vertex -4.95 -8.573651497465942 14.8
    endloop
  endfacet
  facet normal 0 0 1
    outer loop
      vertex -4.2860544424890055 -10.34745076412641 14.8
      vertex -2.8987733051482323 -10.818369254437565 14.8
      vertex -3.788565980414389 -9.14640737186174 14.8
    endloop
  endfacet
  facet normal 0 0 1
    outer loop
      vertex -2.8987733051482323 -10.818369254437565 14.8
      vertex -2.5623085465149553 -9.562665680261777 14.8
      vertex -3.788565980414389 -9.14640737186174 14.8
    endloop
  endfacet
  facet normal 0 0 1
    outer loop
      vertex -2.8987733051482323 -10.818369254437565 14.8
      vertex -1.4618933528645774 -11.104182447386675 14.8
      vertex -2.5623085465149553 -9.562665680261777 14.8
    endloop
  endfacet
  facet normal 0 0 1
    outer loop
      vertex -1.4618933528645774 -11.104182447386675 14.8
      vertex -1.2922093029785107 -9.815304127600724 14.8
      vertex -2.5623085465149553 -9.562665680261777 14.8
    endloop
  endfacet
  facet normal 0 0 1
    outer loop
      vertex -1.4618933528645774 -11.104182447386675 14.8
      vertex 0 -11.2 14.8
      vertex -1.2922093029785107 -9.815304127600724 14.8
    endloop
  endfacet
  facet normal 0 0 1
    outer loop
      vertex 0 -11.2 14.8
      vertex 0 -9.9 14.8
      vertex -1.2922093029785107 -9.815304127600724 14.8
    endloop
  endfacet
  facet normal 0 0 -1
    outer loop
      vertex -11.104182447386675 -1.4618933528645774 0
      vertex -11.2 0 0
      vertex -11.104182447386675 1.4618933528645774 0
    endloop
  endfacet
  facet normal 0 0 -1
    outer loop
      vertex -11.104182447386675 -1.4618933528645774 0
      vertex -11.104182447386675 1.4618933528645774 0
      vertex -10.818369254437565 2.8987733051482323 0
    endloop
  endfacet
  facet normal 0 0 -1
    outer loop
      vertex -10.818369254437565 -2.8987733051482323 0
      vertex -10.818369254437565 2.8987733051482323 0
      vertex -10.34745076412641 4.2860544424890055 0
    endloop
  endfacet
  facet normal 0 0 -1
    outer loop
      vertex -10.34745076412641 -4.2860544424890055 0
      vertex -10.34745076412641 4.2860544424890055 0
      vertex -9.699484522385712 5.6 0
    endloop
  endfacet
  facet normal 0 0 -1
    outer loop
      vertex -9.699484522385712 -5.6 0
      vertex -9.699484522385712 5.6 0
      vertex -8.885557411261834 6.818128004897671 0
    endloop
  endfacet
  facet normal 0 0 -1
    outer loop
      vertex -8.885557411261834 -6.818128004897671 0
      vertex -8.885557411261834 6.818128004897671 0
      vertex -7.919595949289333 7.919595949289333 0
    endloop
  endfacet
  facet normal 0 0 -1
    outer loop
      vertex -7.919595949289333 -7.919595949289333 0
      vertex -7.919595949289333 7.919595949289333 0
      vertex -6.818128004897671 8.885557411261834 0
    endloop
  endfacet
  facet normal 0 0 -1
    outer loop
      vertex -6.818128004897671 -8.885557411261834 0
      vertex -6.818128004897671 8.885557411261834 0
      vertex -5.6 9.699484522385712 0
    endloop
  endfacet
  facet normal -0.9978589232386035 0.06540312923014366 5.988503799981062e-19
    outer loop
      vertex -11.2 0 0
      vertex -11.104182447386675 1.4618933528645774 14.8
      vertex -11.104182447386675 1.4618933528645774 0
    endloop
  endfacet
  facet normal -0.9807852804032307 0.19509032201612717 -1.042675215331064e-18
    outer loop
      vertex -11.104182447386675 1.4618933528645774 0
      vertex -10.818369254437565 2.8987733051482323 14.8
      vertex -10.818369254437565 2.8987733051482323 0
    endloop
  endfacet
  facet normal -0.9469301294951055 0.3214394653031624 -1.3513127374695888e-18
    outer loop
      vertex -10.818369254437565 2.8987733051482323 0
      vertex -10.34745076412641 4.2860544424890055 14.8
      vertex -10.34745076412641 4.2860544424890055 0
    endloop
  endfacet
  facet normal -0.8968727415326883 0.4422886902190013 -1.5966886128984056e-18
    outer loop
      vertex -10.34745076412641 4.2860544424890055 0
      vertex -9.699484522385712 5.6 14.8
      vertex -9.699484522385712 5.6 0
    endloop
  endfacet
  facet normal -0.8314696123025457 0.5555702330196014 -1.8970349023177818e-18
    outer loop
      vertex -9.699484522385712 5.6 0
      vertex -8.885557411261834 6.818128004897671 14.8
      vertex -8.885557411261834 6.818128004897671 0
    endloop
  endfacet
  facet normal -0.7518398074789777 0.6593458151000687 3.0054027296858518e-18
    outer loop
      vertex -8.885557411261834 6.818128004897671 0
      vertex -7.919595949289333 7.919595949289333 14.8
      vertex -7.919595949289333 7.919595949289333 0
    endloop
  endfacet
  facet normal -0.6593458151000687 0.7518398074789777 0
    outer loop
      vertex -7.919595949289333 7.919595949289333 0
      vertex -7.919595949289333 7.919595949289333 14.8
      vertex -6.818128004897671 8.885557411261834 0
    endloop
  endfacet
  facet normal -0.5555702330196014 0.8314696123025457 0
    outer loop
      vertex -6.818128004897671 8.885557411261834 0
      vertex -6.818128004897671 8.885557411261834 14.8
      vertex -5.6 9.699484522385712 0
    endloop
  endfacet
  facet normal 0 0 -1
    outer loop
      vertex -5.6 -9.699484522385712 0
      vertex -5.6 9.699484522385712 0
      vertex -4.2860544424890055 10.34745076412641 0
    endloop
  endfacet
  facet normal 0 0 -1
    outer loop
      vertex -4.2860544424890055 -10.34745076412641 0
      vertex -4.2860544424890055 10.34745076412641 0
      vertex -2.8987733051482323 10.818369254437565 0
    endloop
  endfacet
  facet normal 0 0 -1
    outer loop
      vertex -2.8987733051482323 -10.818369254437565 0
      vertex -2.8987733051482323 10.818369254437565 0
      vertex -1.4618933528645774 11.104182447386675 0
    endloop
  endfacet
  facet normal 0 0 -1
    outer loop
      vertex -1.4618933528645774 -11.104182447386675 0
      vertex -1.4618933528645774 11.104182447386675 0
      vertex 0 11.2 0
    endloop
  endfacet
  facet normal -0.4422886902190013 0.8968727415326883 0
    outer loop
      vertex -5.6 9.699484522385712 0
      vertex -5.6 9.699484522385712 14.8
      vertex -4.2860544424890055 10.34745076412641 0
    endloop
  endfacet
  facet normal -0.3214394653031624 0.9469301294951055 0
    outer loop
      vertex -4.2860544424890055 10.34745076412641 0
      vertex -4.2860544424890055 10.34745076412641 14.8
      vertex -2.8987733051482323 10.818369254437565 0
    endloop
  endfacet
  facet normal -0.19509032201612717 0.9807852804032307 0
    outer loop
      vertex -2.8987733051482323 10.818369254437565 0
      vertex -2.8987733051482323 10.818369254437565 14.8
      vertex -1.4618933528645774 11.104182447386675 0
    endloop
  endfacet
  facet normal -0.06540312923014366 0.9978589232386035 0
    outer loop
      vertex -1.4618933528645774 11.104182447386675 0
      vertex -1.4618933528645774 11.104182447386675 14.8
      vertex 0 11.2 0
    endloop
  endfacet
  facet normal -0.9978589232386035 0.06540312923014366 0
    outer loop
      vertex -11.2 0 0
      vertex -11.2 0 14.8
      vertex -11.104182447386675 1.4618933528645774 14.8
    endloop
  endfacet
  facet normal -0.9807852804032307 0.19509032201612717 0
    outer loop
      vertex -11.104182447386675 1.4618933528645774 0
      vertex -11.104182447386675 1.4618933528645774 14.8
      vertex -10.818369254437565 2.8987733051482323 14.8
    endloop
  endfacet
  facet normal -0.9469301294951055 0.3214394653031624 0
    outer loop
      vertex -10.818369254437565 2.8987733051482323 0
      vertex -10.818369254437565 2.8987733051482323 14.8
      vertex -10.34745076412641 4.2860544424890055 14.8
    endloop
  endfacet
  facet normal -0.8968727415326883 0.4422886902190013 0
    outer loop
      vertex -10.34745076412641 4.2860544424890055 0
      vertex -10.34745076412641 4.2860544424890055 14.8
      vertex -9.699484522385712 5.6 14.8
    endloop
  endfacet
  facet normal 0 0 1
    outer loop
      vertex -11.104182447386675 -1.4618933528645774 14.8
      vertex -11.104182447386675 1.4618933528645774 14.8
      vertex -11.2 0 14.8
    endloop
  endfacet
  facet normal 0 0 1
    outer loop
      vertex -10.818369254437565 -2.8987733051482323 14.8
      vertex -10.818369254437565 2.8987733051482323 14.8
      vertex -11.104182447386675 1.4618933528645774 14.8
    endloop
  endfacet
  facet normal 0 0 1
    outer loop
      vertex -10.34745076412641 -4.2860544424890055 14.8
      vertex -10.34745076412641 4.2860544424890055 14.8
      vertex -10.818369254437565 2.8987733051482323 14.8
    endloop
  endfacet
  facet normal 0 0 1
    outer loop
      vertex -10.34745076412641 4.2860544424890055 14.8
      vertex -9.9 0 14.8
      vertex -9.815304127600724 1.2922093029785107 14.8
    endloop
  endfacet
  facet normal 0 0 1
    outer loop
      vertex -10.34745076412641 4.2860544424890055 14.8
      vertex -9.815304127600724 1.2922093029785107 14.8
      vertex -9.562665680261777 2.5623085465149553 14.8
    endloop
  endfacet
  facet normal 0 0 1
    outer loop
      vertex -10.34745076412641 4.2860544424890055 14.8
      vertex -9.562665680261777 2.5623085465149553 14.8
      vertex -9.699484522385712 5.6 14.8
    endloop
  endfacet
  facet normal 0 0 1
    outer loop
      vertex -9.699484522385712 5.6 14.8
      vertex -9.562665680261777 2.5623085465149553 14.8
      vertex -9.14640737186174 3.788565980414389 14.8
    endloop
  endfacet
  facet normal 0 0 1
    outer loop
      vertex -9.699484522385712 5.6 14.8
      vertex -9.14640737186174 3.788565980414389 14.8
      vertex -8.573651497465942 4.95 14.8
    endloop
  endfacet
  facet normal -0.8314696123025457 0.5555702330196014 0
    outer loop
      vertex -9.699484522385712 5.6 0
      vertex -9.699484522385712 5.6 14.8
      vertex -8.885557411261834 6.818128004897671 14.8
    endloop
  endfacet
  facet normal -0.7518398074789777 0.6593458151000687 0
    outer loop
      vertex -8.885557411261834 6.818128004897671 0
      vertex -8.885557411261834 6.818128004897671 14.8
      vertex -7.919595949289333 7.919595949289333 14.8
    endloop
  endfacet
  facet normal -0.6593458151000687 0.7518398074789777 0
    outer loop
      vertex -6.818128004897671 8.885557411261834 0
      vertex -7.919595949289333 7.919595949289333 14.8
      vertex -6.818128004897671 8.885557411261834 14.8
    endloop
  endfacet
  facet normal -0.5555702330196014 0.8314696123025457 0
    outer loop
      vertex -5.6 9.699484522385712 0
      vertex -6.818128004897671 8.885557411261834 14.8
      vertex -5.6 9.699484522385712 14.8
    endloop
  endfacet
  facet normal 0 0 1
    outer loop
      vertex -9.699484522385712 5.6 14.8
      vertex -8.573651497465942 4.95 14.8
      vertex -8.885557411261834 6.818128004897671 14.8
    endloop
  endfacet
  facet normal 0 0 1
    outer loop
      vertex -8.885557411261834 6.818128004897671 14.8
      vertex -8.573651497465942 4.95 14.8
      vertex -7.854198068883228 6.026738147186335 14.8
    endloop
  endfacet
  facet normal 0 0 1
    outer loop
      vertex -8.885557411261834 6.818128004897671 14.8
      vertex -7.854198068883228 6.026738147186335 14.8
      vertex -7.919595949289333 7.919595949289333 14.8
    endloop
  endfacet
  facet normal 0 0 1
    outer loop
      vertex -7.919595949289333 7.919595949289333 14.8
      vertex -7.854198068883228 6.026738147186335 14.8
      vertex -7.000357133746821 7.000357133746821 14.8
    endloop
  endfacet
  facet normal 0 0 1
    outer loop
      vertex -7.919595949289333 7.919595949289333 14.8
      vertex -7.000357133746821 7.000357133746821 14.8
      vertex -6.026738147186335 7.854198068883228 14.8
    endloop
  endfacet
  facet normal 0 0 1
    outer loop
      vertex -7.919595949289333 7.919595949289333 14.8
      vertex -6.026738147186335 7.854198068883228 14.8
      vertex -6.818128004897671 8.885557411261834 14.8
    endloop
  endfacet
  facet normal 0 0 1
    outer loop
      vertex -6.818128004897671 8.885557411261834 14.8
      vertex -6.026738147186335 7.854198068883228 14.8
      vertex -4.95 8.573651497465942 14.8
    endloop
  endfacet
  facet normal 0 0 1
    outer loop
      vertex -6.818128004897671 8.885557411261834 14.8
      vertex -4.95 8.573651497465942 14.8
      vertex -5.6 9.699484522385712 14.8
    endloop
  endfacet
  facet normal -0.4422886902190013 0.8968727415326883 0
    outer loop
      vertex -4.2860544424890055 10.34745076412641 0
      vertex -5.6 9.699484522385712 14.8
      vertex -4.2860544424890055 10.34745076412641 14.8
    endloop
  endfacet
  facet normal -0.3214394653031624 0.9469301294951055 0
    outer loop
      vertex -2.8987733051482323 10.818369254437565 0
      vertex -4.2860544424890055 10.34745076412641 14.8
      vertex -2.8987733051482323 10.818369254437565 14.8
    endloop
  endfacet
  facet normal -0.19509032201612717 0.9807852804032307 0
    outer loop
      vertex -1.4618933528645774 11.104182447386675 0
      vertex -2.8987733051482323 10.818369254437565 14.8
      vertex -1.4618933528645774 11.104182447386675 14.8
    endloop
  endfacet
  facet normal -0.06540312923014366 0.9978589232386035 5.988503799981062e-19
    outer loop
      vertex -1.4618933528645774 11.104182447386675 14.8
      vertex 0 11.2 14.8
      vertex 0 11.2 0
    endloop
  endfacet
  facet normal 0 0 1
    outer loop
      vertex -5.6 9.699484522385712 14.8
      vertex -4.95 8.573651497465942 14.8
      vertex -3.788565980414389 9.14640737186174 14.8
    endloop
  endfacet
  facet normal 0 0 1
    outer loop
      vertex -5.6 9.699484522385712 14.8
      vertex -3.788565980414389 9.14640737186174 14.8
      vertex -4.2860544424890055 10.34745076412641 14.8
    endloop
  endfacet
  facet normal 0 0 1
    outer loop
      vertex -4.2860544424890055 10.34745076412641 14.8
      vertex -3.788565980414389 9.14640737186174 14.8
      vertex -2.5623085465149553 9.562665680261777 14.8
    endloop
  endfacet
  facet normal 0 0 1
    outer loop
      vertex -4.2860544424890055 10.34745076412641 14.8
      vertex -2.5623085465149553 9.562665680261777 14.8
      vertex -2.8987733051482323 10.818369254437565 14.8
    endloop
  endfacet
  facet normal 0 0 1
    outer loop
      vertex -2.8987733051482323 10.818369254437565 14.8
      vertex -2.5623085465149553 9.562665680261777 14.8
      vertex -1.2922093029785107 9.815304127600724 14.8
    endloop
  endfacet
  facet normal 0 0 1
    outer loop
      vertex -2.8987733051482323 10.818369254437565 14.8
      vertex -1.2922093029785107 9.815304127600724 14.8
      vertex -1.4618933528645774 11.104182447386675 14.8
    endloop
  endfacet
  facet normal 0 0 1
    outer loop
      vertex -1.4618933528645774 11.104182447386675 14.8
      vertex -1.2922093029785107 9.815304127600724 14.8
      vertex 0 9.9 14.8
    endloop
  endfacet
  facet normal 0 0 1
    outer loop
      vertex -1.4618933528645774 11.104182447386675 14.8
      vertex 0 9.9 14.8
      vertex 0 11.2 14.8
    endloop
  endfacet
  facet normal 0.06540312923014366 -0.9978589232386035 5.988503799981062e-19
    outer loop
      vertex 0 -11.2 0
      vertex 1.4618933528645774 -11.104182447386675 0
      vertex 1.4618933528645774 -11.104182447386675 14.8
    endloop
  endfacet
  facet normal 0.19509032201612717 -0.9807852804032307 -1.042675215331064e-18
    outer loop
      vertex 1.4618933528645774 -11.104182447386675 0
      vertex 2.8987733051482323 -10.818369254437565 0
      vertex 2.8987733051482323 -10.818369254437565 14.8
    endloop
  endfacet
  facet normal 0.3214394653031624 -0.9469301294951055 -1.3513127374695888e-18
    outer loop
      vertex 2.8987733051482323 -10.818369254437565 0
      vertex 4.2860544424890055 -10.34745076412641 0
      vertex 4.2860544424890055 -10.34745076412641 14.8
    endloop
  endfacet
  facet normal 0.4422886902190013 -0.8968727415326883 -1.5966886128984056e-18
    outer loop
      vertex 4.2860544424890055 -10.34745076412641 0
      vertex 5.6 -9.699484522385712 0
      vertex 5.6 -9.699484522385712 14.8
    endloop
  endfacet
  facet normal 0 0 -1
    outer loop
      vertex 0 -11.2 0
      vertex 1.4618933528645774 11.104182447386675 0
      vertex 1.4618933528645774 -11.104182447386675 0
    endloop
  endfacet
  facet normal 0 0 -1
    outer loop
      vertex 1.4618933528645774 -11.104182447386675 0
      vertex 2.8987733051482323 10.818369254437565 0
      vertex 2.8987733051482323 -10.818369254437565 0
    endloop
  endfacet
  facet normal 0 0 -1
    outer loop
      vertex 2.8987733051482323 -10.818369254437565 0
      vertex 4.2860544424890055 10.34745076412641 0
      vertex 4.2860544424890055 -10.34745076412641 0
    endloop
  endfacet
  facet normal 0 0 -1
    outer loop
      vertex 4.2860544424890055 -10.34745076412641 0
      vertex 5.6 9.699484522385712 0
      vertex 5.6 -9.699484522385712 0
    endloop
  endfacet
  facet normal 0.5555702330196014 -0.8314696123025457 -1.8970349023177818e-18
    outer loop
      vertex 5.6 -9.699484522385712 0
      vertex 6.818128004897671 -8.885557411261834 0
      vertex 6.818128004897671 -8.885557411261834 14.8
    endloop
  endfacet
  facet normal 0.6593458151000687 -0.7518398074789777 3.0054027296858518e-18
    outer loop
      vertex 6.818128004897671 -8.885557411261834 0
      vertex 7.919595949289333 -7.919595949289333 0
      vertex 7.919595949289333 -7.919595949289333 14.8
    endloop
  endfacet
  facet normal 0.7518398074789777 -0.6593458151000687 0
    outer loop
      vertex 7.919595949289333 -7.919595949289333 0
      vertex 8.885557411261834 -6.818128004897671 0
      vertex 7.919595949289333 -7.919595949289333 14.8
    endloop
  endfacet
  facet normal 0.8314696123025457 -0.5555702330196014 0
    outer loop
      vertex 8.885557411261834 -6.818128004897671 0
      vertex 9.699484522385712 -5.6 0
      vertex 8.885557411261834 -6.818128004897671 14.8
    endloop
  endfacet
  facet normal 0 0 -1
    outer loop
      vertex 5.6 -9.699484522385712 0
      vertex 6.818128004897671 8.885557411261834 0
      vertex 6.818128004897671 -8.885557411261834 0
    endloop
  endfacet
  facet normal 0 0 -1
    outer loop
      vertex 6.818128004897671 -8.885557411261834 0
      vertex 7.919595949289333 7.919595949289333 0
      vertex 7.919595949289333 -7.919595949289333 0
    endloop
  endfacet
  facet normal 0 0 -1
    outer loop
      vertex 7.919595949289333 -7.919595949289333 0
      vertex 8.885557411261834 6.818128004897671 0
      vertex 8.885557411261834 -6.818128004897671 0
    endloop
  endfacet
  facet normal 0 0 -1
    outer loop
      vertex 8.885557411261834 -6.818128004897671 0
      vertex 9.699484522385712 5.6 0
      vertex 9.699484522385712 -5.6 0
    endloop
  endfacet
  facet normal 0 0 -1
    outer loop
      vertex 9.699484522385712 -5.6 0
      vertex 10.34745076412641 4.2860544424890055 0
      vertex 10.34745076412641 -4.2860544424890055 0
    endloop
  endfacet
  facet normal 0 0 -1
    outer loop
      vertex 10.34745076412641 -4.2860544424890055 0
      vertex 10.818369254437565 2.8987733051482323 0
      vertex 10.818369254437565 -2.8987733051482323 0
    endloop
  endfacet
  facet normal 0 0 -1
    outer loop
      vertex 10.818369254437565 -2.8987733051482323 0
      vertex 11.104182447386675 1.4618933528645774 0
      vertex 11.104182447386675 -1.4618933528645774 0
    endloop
  endfacet
  facet normal 0.8968727415326883 -0.4422886902190013 0
    outer loop
      vertex 9.699484522385712 -5.6 0
      vertex 10.34745076412641 -4.2860544424890055 0
      vertex 9.699484522385712 -5.6 14.8
    endloop
  endfacet
  facet normal 0.9469301294951055 -0.3214394653031624 0
    outer loop
      vertex 10.34745076412641 -4.2860544424890055 0
      vertex 10.818369254437565 -2.8987733051482323 0
      vertex 10.34745076412641 -4.2860544424890055 14.8
    endloop
  endfacet
  facet normal 0.9807852804032307 -0.19509032201612717 0
    outer loop
      vertex 10.818369254437565 -2.8987733051482323 0
      vertex 11.104182447386675 -1.4618933528645774 0
      vertex 10.818369254437565 -2.8987733051482323 14.8
    endloop
  endfacet
  facet normal 0.9978589232386035 -0.06540312923014366 0
    outer loop
      vertex 11.104182447386675 -1.4618933528645774 0
      vertex 11.2 0 0
      vertex 11.104182447386675 -1.4618933528645774 14.8
    endloop
  endfacet
  facet normal 0.06540312923014366 -0.9978589232386035 0
    outer loop
      vertex 0 -11.2 0
      vertex 1.4618933528645774 -11.104182447386675 14.8
      vertex 0 -11.2 14.8
    endloop
  endfacet
  facet normal 0.19509032201612717 -0.9807852804032307 0
    outer loop
      vertex 1.4618933528645774 -11.104182447386675 0
      vertex 2.8987733051482323 -10.818369254437565 14.8
      vertex 1.4618933528645774 -11.104182447386675 14.8
    endloop
  endfacet
  facet normal 0.3214394653031624 -0.9469301294951055 0
    outer loop
      vertex 2.8987733051482323 -10.818369254437565 0
      vertex 4.2860544424890055 -10.34745076412641 14.8
      vertex 2.8987733051482323 -10.818369254437565 14.8
    endloop
  endfacet
  facet normal 0.4422886902190013 -0.8968727415326883 0
    outer loop
      vertex 4.2860544424890055 -10.34745076412641 0
      vertex 5.6 -9.699484522385712 14.8
      vertex 4.2860544424890055 -10.34745076412641 14.8
    endloop
  endfacet
  facet normal 0 0 1
    outer loop
      vertex 0 -11.2 14.8
      vertex 1.4618933528645774 -11.104182447386675 14.8
      vertex 0 -9.9 14.8
    endloop
  endfacet
  facet normal 0 0 1
    outer loop
      vertex 1.4618933528645774 -11.104182447386675 14.8
      vertex 1.2922093029785107 -9.815304127600724 14.8
      vertex 0 -9.9 14.8
    endloop
  endfacet
  facet normal 0 0 1
    outer loop
      vertex 1.4618933528645774 -11.104182447386675 14.8
      vertex 2.8987733051482323 -10.818369254437565 14.8
      vertex 1.2922093029785107 -9.815304127600724 14.8
    endloop
  endfacet
  facet normal 0 0 1
    outer loop
      vertex 2.8987733051482323 -10.818369254437565 14.8
      vertex 2.5623085465149553 -9.562665680261777 14.8
      vertex 1.2922093029785107 -9.815304127600724 14.8
    endloop
  endfacet
  facet normal 0 0 1
    outer loop
      vertex 2.8987733051482323 -10.818369254437565 14.8
      vertex 4.2860544424890055 -10.34745076412641 14.8
      vertex 2.5623085465149553 -9.562665680261777 14.8
    endloop
  endfacet
  facet normal 0 0 1
    outer loop
      vertex 4.2860544424890055 -10.34745076412641 14.8
      vertex 3.788565980414389 -9.14640737186174 14.8
      vertex 2.5623085465149553 -9.562665680261777 14.8
    endloop
  endfacet
  facet normal 0 0 1
    outer loop
      vertex 4.2860544424890055 -10.34745076412641 14.8
      vertex 5.6 -9.699484522385712 14.8
      vertex 3.788565980414389 -9.14640737186174 14.8
    endloop
  endfacet
  facet normal 0 0 1
    outer loop
      vertex 5.6 -9.699484522385712 14.8
      vertex 4.95 -8.573651497465942 14.8
      vertex 3.788565980414389 -9.14640737186174 14.8
    endloop
  endfacet
  facet normal 0.5555702330196014 -0.8314696123025457 0
    outer loop
      vertex 5.6 -9.699484522385712 0
      vertex 6.818128004897671 -8.885557411261834 14.8
      vertex 5.6 -9.699484522385712 14.8
    endloop
  endfacet
  facet normal 0.6593458151000687 -0.7518398074789777 0
    outer loop
      vertex 6.818128004897671 -8.885557411261834 0
      vertex 7.919595949289333 -7.919595949289333 14.8
      vertex 6.818128004897671 -8.885557411261834 14.8
    endloop
  endfacet
  facet normal 0.7518398074789777 -0.6593458151000687 0
    outer loop
      vertex 8.885557411261834 -6.818128004897671 0
      vertex 8.885557411261834 -6.818128004897671 14.8
      vertex 7.919595949289333 -7.919595949289333 14.8
    endloop
  endfacet
  facet normal 0.8314696123025457 -0.5555702330196014 0
    outer loop
      vertex 9.699484522385712 -5.6 0
      vertex 9.699484522385712 -5.6 14.8
      vertex 8.885557411261834 -6.818128004897671 14.8
    endloop
  endfacet
  facet normal 0 0 1
    outer loop
      vertex 5.6 -9.699484522385712 14.8
      vertex 6.818128004897671 -8.885557411261834 14.8
      vertex 4.95 -8.573651497465942 14.8
    endloop
  endfacet
  facet normal 0 0 1
    outer loop
      vertex 6.818128004897671 -8.885557411261834 14.8
      vertex 6.026738147186335 -7.854198068883228 14.8
      vertex 4.95 -8.573651497465942 14.8
    endloop
  endfacet
  facet normal 0 0 1
    outer loop
      vertex 6.818128004897671 -8.885557411261834 14.8
      vertex 7.919595949289333 -7.919595949289333 14.8
      vertex 6.026738147186335 -7.854198068883228 14.8
    endloop
  endfacet
  facet normal 0 0 1
    outer loop
      vertex 7.919595949289333 -7.919595949289333 14.8
      vertex 7.000357133746821 -7.000357133746821 14.8
      vertex 6.026738147186335 -7.854198068883228 14.8
    endloop
  endfacet
  facet normal 0 0 1
    outer loop
      vertex 7.919595949289333 -7.919595949289333 14.8
      vertex 7.854198068883228 -6.026738147186335 14.8
      vertex 7.000357133746821 -7.000357133746821 14.8
    endloop
  endfacet
  facet normal 0 0 1
    outer loop
      vertex 7.919595949289333 -7.919595949289333 14.8
      vertex 8.885557411261834 -6.818128004897671 14.8
      vertex 7.854198068883228 -6.026738147186335 14.8
    endloop
  endfacet
  facet normal 0 0 1
    outer loop
      vertex 8.885557411261834 -6.818128004897671 14.8
      vertex 8.573651497465942 -4.95 14.8
      vertex 7.854198068883228 -6.026738147186335 14.8
    endloop
  endfacet
  facet normal 0 0 1
    outer loop
      vertex 8.885557411261834 -6.818128004897671 14.8
      vertex 9.699484522385712 -5.6 14.8
      vertex 8.573651497465942 -4.95 14.8
    endloop
  endfacet
  facet normal 0.8968727415326883 -0.4422886902190013 0
    outer loop
      vertex 10.34745076412641 -4.2860544424890055 0
      vertex 10.34745076412641 -4.2860544424890055 14.8
      vertex 9.699484522385712 -5.6 14.8
    endloop
  endfacet
  facet normal 0.9469301294951055 -0.3214394653031624 0
    outer loop
      vertex 10.818369254437565 -2.8987733051482323 0
      vertex 10.818369254437565 -2.8987733051482323 14.8
      vertex 10.34745076412641 -4.2860544424890055 14.8
    endloop
  endfacet
  facet normal 0.9807852804032307 -0.19509032201612717 0
    outer loop
      vertex 11.104182447386675 -1.4618933528645774 0
      vertex 11.104182447386675 -1.4618933528645774 14.8
      vertex 10.818369254437565 -2.8987733051482323 14.8
    endloop
  endfacet
  facet normal 0.9978589232386035 -0.06540312923014366 5.988503799981062e-19
    outer loop
      vertex 11.104182447386675 -1.4618933528645774 14.8
      vertex 11.2 0 0
      vertex 11.2 0 14.8
    endloop
  endfacet
  facet normal 0 0 1
    outer loop
      vertex 9.699484522385712 -5.6 14.8
      vertex 9.14640737186174 -3.788565980414389 14.8
      vertex 8.573651497465942 -4.95 14.8
    endloop
  endfacet
  facet normal 0 0 1
    outer loop
      vertex 9.699484522385712 -5.6 14.8
      vertex 9.562665680261777 -2.5623085465149553 14.8
      vertex 9.14640737186174 -3.788565980414389 14.8
    endloop
  endfacet
  facet normal 0 0 1
    outer loop
      vertex 9.699484522385712 -5.6 14.8
      vertex 10.34745076412641 -4.2860544424890055 14.8
      vertex 9.562665680261777 -2.5623085465149553 14.8
    endloop
  endfacet
  facet normal 0 0 1
    outer loop
      vertex 10.34745076412641 -4.2860544424890055 14.8
      vertex 9.815304127600724 -1.2922093029785107 14.8
      vertex 9.562665680261777 -2.5623085465149553 14.8
    endloop
  endfacet
  facet normal 0 0 1
    outer loop
      vertex 10.34745076412641 -4.2860544424890055 14.8
      vertex 9.9 0 14.8
      vertex 9.815304127600724 -1.2922093029785107 14.8
    endloop
  endfacet
  facet normal 0 0 1
    outer loop
      vertex 10.34745076412641 -4.2860544424890055 14.8
      vertex 10.818369254437565 -2.8987733051482323 14.8
      vertex 10.34745076412641 4.2860544424890055 14.8
    endloop
  endfacet
  facet normal 0 0 1
    outer loop
      vertex 10.818369254437565 -2.8987733051482323 14.8
      vertex 11.104182447386675 -1.4618933528645774 14.8
      vertex 10.818369254437565 2.8987733051482323 14.8
    endloop
  endfacet
  facet normal 0 0 -1
    outer loop
      vertex 0 -11.2 0
      vertex 0 11.2 0
      vertex 1.4618933528645774 11.104182447386675 0
    endloop
  endfacet
  facet normal 0 0 -1
    outer loop
      vertex 1.4618933528645774 -11.104182447386675 0
      vertex 1.4618933528645774 11.104182447386675 0
      vertex 2.8987733051482323 10.818369254437565 0
    endloop
  endfacet
  facet normal 0 0 -1
    outer loop
      vertex 2.8987733051482323 -10.818369254437565 0
      vertex 2.8987733051482323 10.818369254437565 0
      vertex 4.2860544424890055 10.34745076412641 0
    endloop
  endfacet
  facet normal 0 0 -1
    outer loop
      vertex 4.2860544424890055 -10.34745076412641 0
      vertex 4.2860544424890055 10.34745076412641 0
      vertex 5.6 9.699484522385712 0
    endloop
  endfacet
  facet normal 0.06540312923014366 0.9978589232386035 0
    outer loop
      vertex 0 11.2 0
      vertex 0 11.2 14.8
      vertex 1.4618933528645774 11.104182447386675 0
    endloop
  endfacet
  facet normal 0.19509032201612717 0.9807852804032307 0
    outer loop
      vertex 1.4618933528645774 11.104182447386675 0
      vertex 1.4618933528645774 11.104182447386675 14.8
      vertex 2.8987733051482323 10.818369254437565 0
    endloop
  endfacet
  facet normal 0.3214394653031624 0.9469301294951055 0
    outer loop
      vertex 2.8987733051482323 10.818369254437565 0
      vertex 2.8987733051482323 10.818369254437565 14.8
      vertex 4.2860544424890055 10.34745076412641 0
    endloop
  endfacet
  facet normal 0.4422886902190013 0.8968727415326883 1.5966886128984056e-18
    outer loop
      vertex 5.6 9.699484522385712 0
      vertex 4.2860544424890055 10.34745076412641 0
      vertex 4.2860544424890055 10.34745076412641 14.8
    endloop
  endfacet
  facet normal 0 0 -1
    outer loop
      vertex 6.818128004897671 -8.885557411261834 0
      vertex 6.818128004897671 8.885557411261834 0
      vertex 7.919595949289333 7.919595949289333 0
    endloop
  endfacet
  facet normal 0 0 -1
    outer loop
      vertex 7.919595949289333 -7.919595949289333 0
      vertex 7.919595949289333 7.919595949289333 0
      vertex 8.885557411261834 6.818128004897671 0
    endloop
  endfacet
  facet normal 0 0 -1
    outer loop
      vertex 5.6 -9.699484522385712 0
      vertex 5.6 9.699484522385712 0
      vertex 6.818128004897671 8.885557411261834 0
    endloop
  endfacet
  facet normal 0 0 -1
    outer loop
      vertex 8.885557411261834 -6.818128004897671 0
      vertex 8.885557411261834 6.818128004897671 0
      vertex 9.699484522385712 5.6 0
    endloop
  endfacet
  facet normal 0 0 -1
    outer loop
      vertex 11.104182447386675 -1.4618933528645774 0
      vertex 11.104182447386675 1.4618933528645774 0
      vertex 11.2 0 0
    endloop
  endfacet
  facet normal 0 0 -1
    outer loop
      vertex 10.818369254437565 -2.8987733051482323 0
      vertex 10.818369254437565 2.8987733051482323 0
      vertex 11.104182447386675 1.4618933528645774 0
    endloop
  endfacet
  facet normal 0 0 -1
    outer loop
      vertex 10.34745076412641 -4.2860544424890055 0
      vertex 10.34745076412641 4.2860544424890055 0
      vertex 10.818369254437565 2.8987733051482323 0
    endloop
  endfacet
  facet normal 0 0 -1
    outer loop
      vertex 9.699484522385712 -5.6 0
      vertex 9.699484522385712 5.6 0
      vertex 10.34745076412641 4.2860544424890055 0
    endloop
  endfacet
  facet normal 0.9978589232386035 0.06540312923014366 0
    outer loop
      vertex 11.2 0 0
      vertex 11.104182447386675 1.4618933528645774 0
      vertex 11.2 0 14.8
    endloop
  endfacet
  facet normal 0.9807852804032307 0.19509032201612717 0
    outer loop
      vertex 11.104182447386675 1.4618933528645774 0
      vertex 10.818369254437565 2.8987733051482323 0
      vertex 11.104182447386675 1.4618933528645774 14.8
    endloop
  endfacet
  facet normal 0.9469301294951055 0.3214394653031624 0
    outer loop
      vertex 10.818369254437565 2.8987733051482323 0
      vertex 10.34745076412641 4.2860544424890055 0
      vertex 10.818369254437565 2.8987733051482323 14.8
    endloop
  endfacet
  facet normal 0.8968727415326883 0.4422886902190013 1.5966886128984056e-18
    outer loop
      vertex 9.699484522385712 5.6 0
      vertex 10.34745076412641 4.2860544424890055 14.8
      vertex 10.34745076412641 4.2860544424890055 0
    endloop
  endfacet
  facet normal 0.5555702330196014 0.8314696123025457 0
    outer loop
      vertex 5.6 9.699484522385712 0
      vertex 5.6 9.699484522385712 14.8
      vertex 6.818128004897671 8.885557411261834 0
    endloop
  endfacet
  facet normal 0.6593458151000687 0.7518398074789777 -3.0054027296858518e-18
    outer loop
      vertex 7.919595949289333 7.919595949289333 0
      vertex 6.818128004897671 8.885557411261834 0
      vertex 6.818128004897671 8.885557411261834 14.8
    endloop
  endfacet
  facet normal 0.8314696123025457 0.5555702330196014 0
    outer loop
      vertex 9.699484522385712 5.6 0
      vertex 8.885557411261834 6.818128004897671 0
      vertex 9.699484522385712 5.6 14.8
    endloop
  endfacet
  facet normal 0.7518398074789777 0.6593458151000687 -3.0054027296858518e-18
    outer loop
      vertex 7.919595949289333 7.919595949289333 0
      vertex 8.885557411261834 6.818128004897671 14.8
      vertex 8.885557411261834 6.818128004897671 0
    endloop
  endfacet
  facet normal 0.06540312923014366 0.9978589232386035 0
    outer loop
      vertex 1.4618933528645774 11.104182447386675 0
      vertex 0 11.2 14.8
      vertex 1.4618933528645774 11.104182447386675 14.8
    endloop
  endfacet
  facet normal 0.19509032201612717 0.9807852804032307 0
    outer loop
      vertex 2.8987733051482323 10.818369254437565 0
      vertex 1.4618933528645774 11.104182447386675 14.8
      vertex 2.8987733051482323 10.818369254437565 14.8
    endloop
  endfacet
  facet normal 0.3214394653031624 0.9469301294951055 0
    outer loop
      vertex 4.2860544424890055 10.34745076412641 0
      vertex 2.8987733051482323 10.818369254437565 14.8
      vertex 4.2860544424890055 10.34745076412641 14.8
    endloop
  endfacet
  facet normal 0.4422886902190013 0.8968727415326883 0
    outer loop
      vertex 5.6 9.699484522385712 0
      vertex 4.2860544424890055 10.34745076412641 14.8
      vertex 5.6 9.699484522385712 14.8
    endloop
  endfacet
  facet normal 0 0 1
    outer loop
      vertex 0 11.2 14.8
      vertex 0 9.9 14.8
      vertex 1.2922093029785107 9.815304127600724 14.8
    endloop
  endfacet
  facet normal 0 0 1
    outer loop
      vertex 0 11.2 14.8
      vertex 1.2922093029785107 9.815304127600724 14.8
      vertex 1.4618933528645774 11.104182447386675 14.8
    endloop
  endfacet
  facet normal 0 0 1
    outer loop
      vertex 1.4618933528645774 11.104182447386675 14.8
      vertex 1.2922093029785107 9.815304127600724 14.8
      vertex 2.5623085465149553 9.562665680261777 14.8
    endloop
  endfacet
  facet normal 0 0 1
    outer loop
      vertex 1.4618933528645774 11.104182447386675 14.8
      vertex 2.5623085465149553 9.562665680261777 14.8
      vertex 2.8987733051482323 10.818369254437565 14.8
    endloop
  endfacet
  facet normal 0 0 1
    outer loop
      vertex 2.8987733051482323 10.818369254437565 14.8
      vertex 2.5623085465149553 9.562665680261777 14.8
      vertex 3.788565980414389 9.14640737186174 14.8
    endloop
  endfacet
  facet normal 0 0 1
    outer loop
      vertex 2.8987733051482323 10.818369254437565 14.8
      vertex 3.788565980414389 9.14640737186174 14.8
      vertex 4.2860544424890055 10.34745076412641 14.8
    endloop
  endfacet
  facet normal 0 0 1
    outer loop
      vertex 4.2860544424890055 10.34745076412641 14.8
      vertex 3.788565980414389 9.14640737186174 14.8
      vertex 4.95 8.573651497465942 14.8
    endloop
  endfacet
  facet normal 0 0 1
    outer loop
      vertex 5.6 9.699484522385712 14.8
      vertex 4.95 8.573651497465942 14.8
      vertex 6.026738147186335 7.854198068883228 14.8
    endloop
  endfacet
  facet normal 0 0 1
    outer loop
      vertex 5.6 9.699484522385712 14.8
      vertex 4.2860544424890055 10.34745076412641 14.8
      vertex 4.95 8.573651497465942 14.8
    endloop
  endfacet
  facet normal 0.9978589232386035 0.06540312923014366 0
    outer loop
      vertex 11.104182447386675 1.4618933528645774 0
      vertex 11.104182447386675 1.4618933528645774 14.8
      vertex 11.2 0 14.8
    endloop
  endfacet
  facet normal 0.9807852804032307 0.19509032201612717 0
    outer loop
      vertex 10.818369254437565 2.8987733051482323 0
      vertex 10.818369254437565 2.8987733051482323 14.8
      vertex 11.104182447386675 1.4618933528645774 14.8
    endloop
  endfacet
  facet normal 0.9469301294951055 0.3214394653031624 0
    outer loop
      vertex 10.34745076412641 4.2860544424890055 0
      vertex 10.34745076412641 4.2860544424890055 14.8
      vertex 10.818369254437565 2.8987733051482323 14.8
    endloop
  endfacet
  facet normal 0.8968727415326883 0.4422886902190013 0
    outer loop
      vertex 9.699484522385712 5.6 0
      vertex 9.699484522385712 5.6 14.8
      vertex 10.34745076412641 4.2860544424890055 14.8
    endloop
  endfacet
  facet normal 0 0 1
    outer loop
      vertex 10.34745076412641 -4.2860544424890055 14.8
      vertex 9.699484522385712 5.6 14.8
      vertex 9.9 0 14.8
    endloop
  endfacet
  facet normal 0 0 1
    outer loop
      vertex 11.104182447386675 -1.4618933528645774 14.8
      vertex 11.2 0 14.8
      vertex 11.104182447386675 1.4618933528645774 14.8
    endloop
  endfacet
  facet normal 0 0 1
    outer loop
      vertex 11.104182447386675 -1.4618933528645774 14.8
      vertex 11.104182447386675 1.4618933528645774 14.8
      vertex 10.818369254437565 2.8987733051482323 14.8
    endloop
  endfacet
  facet normal 0 0 1
    outer loop
      vertex 10.34745076412641 -4.2860544424890055 14.8
      vertex 10.34745076412641 4.2860544424890055 14.8
      vertex 9.699484522385712 5.6 14.8
    endloop
  endfacet
  facet normal 0 0 1
    outer loop
      vertex 9.699484522385712 5.6 14.8
      vertex 9.815304127600724 1.2922093029785107 14.8
      vertex 9.9 0 14.8
    endloop
  endfacet
  facet normal 0 0 1
    outer loop
      vertex 10.818369254437565 -2.8987733051482323 14.8
      vertex 10.818369254437565 2.8987733051482323 14.8
      vertex 10.34745076412641 4.2860544424890055 14.8
    endloop
  endfacet
  facet normal 0 0 1
    outer loop
      vertex 9.699484522385712 5.6 14.8
      vertex 9.562665680261777 2.5623085465149553 14.8
      vertex 9.815304127600724 1.2922093029785107 14.8
    endloop
  endfacet
  facet normal 0 0 1
    outer loop
      vertex 9.699484522385712 5.6 14.8
      vertex 9.14640737186174 3.788565980414389 14.8
      vertex 9.562665680261777 2.5623085465149553 14.8
    endloop
  endfacet
  facet normal 0 0 1
    outer loop
      vertex 8.885557411261834 6.818128004897671 14.8
      vertex 8.573651497465942 4.95 14.8
      vertex 9.14640737186174 3.788565980414389 14.8
    endloop
  endfacet
  facet normal 0 0 1
    outer loop
      vertex 9.699484522385712 5.6 14.8
      vertex 8.885557411261834 6.818128004897671 14.8
      vertex 9.14640737186174 3.788565980414389 14.8
    endloop
  endfacet
  facet normal 0.6593458151000687 0.7518398074789777 0
    outer loop
      vertex 7.919595949289333 7.919595949289333 0
      vertex 6.818128004897671 8.885557411261834 14.8
      vertex 7.919595949289333 7.919595949289333 14.8
    endloop
  endfacet
  facet normal 0.7518398074789777 0.6593458151000687 0
    outer loop
      vertex 7.919595949289333 7.919595949289333 0
      vertex 7.919595949289333 7.919595949289333 14.8
      vertex 8.885557411261834 6.818128004897671 14.8
    endloop
  endfacet
  facet normal 0.5555702330196014 0.8314696123025457 0
    outer loop
      vertex 6.818128004897671 8.885557411261834 0
      vertex 5.6 9.699484522385712 14.8
      vertex 6.818128004897671 8.885557411261834 14.8
    endloop
  endfacet
  facet normal 0.8314696123025457 0.5555702330196014 0
    outer loop
      vertex 8.885557411261834 6.818128004897671 0
      vertex 8.885557411261834 6.818128004897671 14.8
      vertex 9.699484522385712 5.6 14.8
    endloop
  endfacet
  facet normal 0 0 1
    outer loop
      vertex 6.818128004897671 8.885557411261834 14.8
      vertex 6.026738147186335 7.854198068883228 14.8
      vertex 7.000357133746821 7.000357133746821 14.8
    endloop
  endfacet
  facet normal 0 0 1
    outer loop
      vertex 7.919595949289333 7.919595949289333 14.8
      vertex 7.000357133746821 7.000357133746821 14.8
      vertex 7.854198068883228 6.026738147186335 14.8
    endloop
  endfacet
  facet normal 0 0 1
    outer loop
      vertex 7.919595949289333 7.919595949289333 14.8
      vertex 7.854198068883228 6.026738147186335 14.8
      vertex 8.573651497465942 4.95 14.8
    endloop
  endfacet
  facet normal 0 0 1
    outer loop
      vertex 7.919595949289333 7.919595949289333 14.8
      vertex 6.818128004897671 8.885557411261834 14.8
      vertex 7.000357133746821 7.000357133746821 14.8
    endloop
  endfacet
  facet normal 0 0 1
    outer loop
      vertex 5.6 9.699484522385712 14.8
      vertex 6.026738147186335 7.854198068883228 14.8
      vertex 6.818128004897671 8.885557411261834 14.8
    endloop
  endfacet
  facet normal 0 0 1
    outer loop
      vertex 7.919595949289333 7.919595949289333 14.8
      vertex 8.573651497465942 4.95 14.8
      vertex 8.885557411261834 6.818128004897671 14.8
    endloop
  endfacet
  facet normal 0.7518398074789774 0.6593458151000688 0
    outer loop
      vertex -7.854198068883228 -6.026738147186335 0.8
      vertex -7.854198068883228 -6.026738147186335 14.8
      vertex -7.000357133746821 -7.000357133746821 0.8
    endloop
  endfacet
  facet normal 0.6593458151000688 0.7518398074789774 1.3563408666318804e-18
    outer loop
      vertex -6.026738147186335 -7.854198068883228 0.8
      vertex -7.000357133746821 -7.000357133746821 0.8
      vertex -7.000357133746821 -7.000357133746821 14.8
    endloop
  endfacet
  facet normal 0.5555702330196017 0.8314696123025456 0
    outer loop
      vertex -6.026738147186335 -7.854198068883228 0.8
      vertex -6.026738147186335 -7.854198068883228 14.8
      vertex -4.95 -8.573651497465942 0.8
    endloop
  endfacet
  facet normal 0 0 1
    outer loop
      vertex -9.14640737186174 -3.788565980414389 0.8
      vertex -9.14640737186174 3.788565980414389 0.8
      vertex -9.562665680261777 -2.5623085465149553 0.8
    endloop
  endfacet
  facet normal 0 0 1
    outer loop
      vertex -9.562665680261777 -2.5623085465149553 0.8
      vertex -9.562665680261777 2.5623085465149553 0.8
      vertex -9.815304127600724 -1.2922093029785107 0.8
    endloop
  endfacet
  facet normal 0 0 1
    outer loop
      vertex -9.14640737186174 -3.788565980414389 0.8
      vertex -8.573651497465942 -4.95 0.8
      vertex -8.573651497465942 4.95 0.8
    endloop
  endfacet
  facet normal 0 0 1
    outer loop
      vertex -7.854198068883228 -6.026738147186335 0.8
      vertex -7.854198068883228 6.026738147186335 0.8
      vertex -8.573651497465942 -4.95 0.8
    endloop
  endfacet
  facet normal 0 0 1
    outer loop
      vertex -7.854198068883228 -6.026738147186335 0.8
      vertex -7.000357133746821 -7.000357133746821 0.8
      vertex -7.000357133746821 7.000357133746821 0.8
    endloop
  endfacet
  facet normal 0 0 1
    outer loop
      vertex -6.026738147186335 -7.854198068883228 0.8
      vertex -6.026738147186335 7.854198068883228 0.8
      vertex -7.000357133746821 -7.000357133746821 0.8
    endloop
  endfacet
  facet normal 0.9469301294951057 0.3214394653031614 -2.737174381604185e-18
    outer loop
      vertex -9.14640737186174 -3.788565980414389 0.8
      vertex -9.562665680261777 -2.5623085465149553 0.8
      vertex -9.562665680261777 -2.5623085465149553 14.8
    endloop
  endfacet
  facet normal 0.896872741532688 0.4422886902190021 0
    outer loop
      vertex -9.14640737186174 -3.788565980414389 0.8
      vertex -9.14640737186174 -3.788565980414389 14.8
      vertex -8.573651497465942 -4.95 0.8
    endloop
  endfacet
  facet normal 0.9978589232386035 0.06540312923014262 -1.0847960556492475e-19
    outer loop
      vertex -9.815304127600724 -1.2922093029785107 0.8
      vertex -9.9 0 0.8
      vertex -9.9 0 14.8
    endloop
  endfacet
  facet normal 0.9807852804032304 0.19509032201612855 -5.960451041015721e-19
    outer loop
      vertex -9.562665680261777 -2.5623085465149553 0.8
      vertex -9.815304127600724 -1.2922093029785107 0.8
      vertex -9.815304127600724 -1.2922093029785107 14.8
    endloop
  endfacet
  facet normal 0.8314696123025456 0.5555702330196017 3.063845934320391e-19
    outer loop
      vertex -7.854198068883228 -6.026738147186335 0.8
      vertex -8.573651497465942 -4.95 0.8
      vertex -8.573651497465942 -4.95 14.8
    endloop
  endfacet
  facet normal 0.4422886902190021 0.896872741532688 5.527606437138121e-19
    outer loop
      vertex -3.788565980414389 -9.14640737186174 0.8
      vertex -4.95 -8.573651497465942 0.8
      vertex -4.95 -8.573651497465942 14.8
    endloop
  endfacet
  facet normal 0.3214394653031614 0.9469301294951057 0
    outer loop
      vertex -3.788565980414389 -9.14640737186174 0.8
      vertex -3.788565980414389 -9.14640737186174 14.8
      vertex -2.5623085465149553 -9.562665680261777 0.8
    endloop
  endfacet
  facet normal 0.19509032201612855 0.9807852804032304 0
    outer loop
      vertex -2.5623085465149553 -9.562665680261777 0.8
      vertex -2.5623085465149553 -9.562665680261777 14.8
      vertex -1.2922093029785107 -9.815304127600724 0.8
    endloop
  endfacet
  facet normal 0.06540312923014262 0.9978589232386035 0
    outer loop
      vertex -1.2922093029785107 -9.815304127600724 0.8
      vertex -1.2922093029785107 -9.815304127600724 14.8
      vertex 0 -9.9 0.8
    endloop
  endfacet
  facet normal 0 0 1
    outer loop
      vertex -3.788565980414389 -9.14640737186174 0.8
      vertex -3.788565980414389 9.14640737186174 0.8
      vertex -4.95 -8.573651497465942 0.8
    endloop
  endfacet
  facet normal 0 0 1
    outer loop
      vertex -3.788565980414389 -9.14640737186174 0.8
      vertex -2.5623085465149553 -9.562665680261777 0.8
      vertex -2.5623085465149553 9.562665680261777 0.8
    endloop
  endfacet
  facet normal 0 0 1
    outer loop
      vertex -6.026738147186335 -7.854198068883228 0.8
      vertex -4.95 -8.573651497465942 0.8
      vertex -4.95 8.573651497465942 0.8
    endloop
  endfacet
  facet normal 0 0 1
    outer loop
      vertex -2.5623085465149553 -9.562665680261777 0.8
      vertex -1.2922093029785107 -9.815304127600724 0.8
      vertex -1.2922093029785107 9.815304127600724 0.8
    endloop
  endfacet
  facet normal 0 0 1
    outer loop
      vertex -1.2922093029785107 -9.815304127600724 0.8
      vertex 0 -9.9 0.8
      vertex 0 9.9 0.8
    endloop
  endfacet
  facet normal 0.8314696123025456 0.5555702330196017 0
    outer loop
      vertex -7.854198068883228 -6.026738147186335 0.8
      vertex -8.573651497465942 -4.95 14.8
      vertex -7.854198068883228 -6.026738147186335 14.8
    endloop
  endfacet
  facet normal 0.7518398074789774 0.6593458151000688 0
    outer loop
      vertex -7.000357133746821 -7.000357133746821 0.8
      vertex -7.854198068883228 -6.026738147186335 14.8
      vertex -7.000357133746821 -7.000357133746821 14.8
    endloop
  endfacet
  facet normal 0.6593458151000688 0.7518398074789774 0
    outer loop
      vertex -6.026738147186335 -7.854198068883228 0.8
      vertex -7.000357133746821 -7.000357133746821 14.8
      vertex -6.026738147186335 -7.854198068883228 14.8
    endloop
  endfacet
  facet normal 0.896872741532688 0.4422886902190021 0
    outer loop
      vertex -8.573651497465942 -4.95 0.8
      vertex -9.14640737186174 -3.788565980414389 14.8
      vertex -8.573651497465942 -4.95 14.8
    endloop
  endfacet
  facet normal 0.9469301294951057 0.3214394653031614 0
    outer loop
      vertex -9.14640737186174 -3.788565980414389 0.8
      vertex -9.562665680261777 -2.5623085465149553 14.8
      vertex -9.14640737186174 -3.788565980414389 14.8
    endloop
  endfacet
  facet normal 0.9978589232386035 0.06540312923014262 0
    outer loop
      vertex -9.815304127600724 -1.2922093029785107 0.8
      vertex -9.9 0 14.8
      vertex -9.815304127600724 -1.2922093029785107 14.8
    endloop
  endfacet
  facet normal 0.9807852804032304 0.19509032201612855 0
    outer loop
      vertex -9.562665680261777 -2.5623085465149553 0.8
      vertex -9.815304127600724 -1.2922093029785107 14.8
      vertex -9.562665680261777 -2.5623085465149553 14.8
    endloop
  endfacet
  facet normal 0.4422886902190021 0.896872741532688 0
    outer loop
      vertex -3.788565980414389 -9.14640737186174 0.8
      vertex -4.95 -8.573651497465942 14.8
      vertex -3.788565980414389 -9.14640737186174 14.8
    endloop
  endfacet
  facet normal 0.3214394653031614 0.9469301294951057 0
    outer loop
      vertex -2.5623085465149553 -9.562665680261777 0.8
      vertex -3.788565980414389 -9.14640737186174 14.8
      vertex -2.5623085465149553 -9.562665680261777 14.8
    endloop
  endfacet
  facet normal 0.5555702330196017 0.8314696123025456 0
    outer loop
      vertex -4.95 -8.573651497465942 0.8
      vertex -6.026738147186335 -7.854198068883228 14.8
      vertex -4.95 -8.573651497465942 14.8
    endloop
  endfacet
  facet normal 0.19509032201612855 0.9807852804032304 0
    outer loop
      vertex -1.2922093029785107 -9.815304127600724 0.8
      vertex -2.5623085465149553 -9.562665680261777 14.8
      vertex -1.2922093029785107 -9.815304127600724 14.8
    endloop
  endfacet
  facet normal 0.06540312923014262 0.9978589232386035 0
    outer loop
      vertex 0 -9.9 0.8
      vertex -1.2922093029785107 -9.815304127600724 14.8
      vertex 0 -9.9 14.8
    endloop
  endfacet
  facet normal 0 0 1
    outer loop
      vertex -9.815304127600724 -1.2922093029785107 0.8
      vertex -9.815304127600724 1.2922093029785107 0.8
      vertex -9.9 0 0.8
    endloop
  endfacet
  facet normal 0 0 1
    outer loop
      vertex -9.815304127600724 -1.2922093029785107 0.8
      vertex -9.562665680261777 2.5623085465149553 0.8
      vertex -9.815304127600724 1.2922093029785107 0.8
    endloop
  endfacet
  facet normal 0 0 1
    outer loop
      vertex -9.562665680261777 -2.5623085465149553 0.8
      vertex -9.14640737186174 3.788565980414389 0.8
      vertex -9.562665680261777 2.5623085465149553 0.8
    endloop
  endfacet
  facet normal 0 0 1
    outer loop
      vertex -9.14640737186174 -3.788565980414389 0.8
      vertex -8.573651497465942 4.95 0.8
      vertex -9.14640737186174 3.788565980414389 0.8
    endloop
  endfacet
  facet normal 0 0 1
    outer loop
      vertex -8.573651497465942 -4.95 0.8
      vertex -7.854198068883228 6.026738147186335 0.8
      vertex -8.573651497465942 4.95 0.8
    endloop
  endfacet
  facet normal 0 0 1
    outer loop
      vertex -7.854198068883228 -6.026738147186335 0.8
      vertex -7.000357133746821 7.000357133746821 0.8
      vertex -7.854198068883228 6.026738147186335 0.8
    endloop
  endfacet
  facet normal 0 0 1
    outer loop
      vertex -7.000357133746821 -7.000357133746821 0.8
      vertex -6.026738147186335 7.854198068883228 0.8
      vertex -7.000357133746821 7.000357133746821 0.8
    endloop
  endfacet
  facet normal 0 0 1
    outer loop
      vertex -6.026738147186335 -7.854198068883228 0.8
      vertex -4.95 8.573651497465942 0.8
      vertex -6.026738147186335 7.854198068883228 0.8
    endloop
  endfacet
  facet normal 0.9978589232386035 -0.06540312923014262 1.0847960556492475e-19
    outer loop
      vertex -9.9 0 0.8
      vertex -9.815304127600724 1.2922093029785107 0.8
      vertex -9.815304127600724 1.2922093029785107 14.8
    endloop
  endfacet
  facet normal 0.9807852804032304 -0.19509032201612855 5.960451041015721e-19
    outer loop
      vertex -9.815304127600724 1.2922093029785107 0.8
      vertex -9.562665680261777 2.5623085465149553 0.8
      vertex -9.562665680261777 2.5623085465149553 14.8
    endloop
  endfacet
  facet normal 0.9469301294951057 -0.3214394653031614 2.737174381604185e-18
    outer loop
      vertex -9.562665680261777 2.5623085465149553 0.8
      vertex -9.14640737186174 3.788565980414389 0.8
      vertex -9.14640737186174 3.788565980414389 14.8
    endloop
  endfacet
  facet normal 0.896872741532688 -0.4422886902190021 -5.527606437138121e-19
    outer loop
      vertex -9.14640737186174 3.788565980414389 0.8
      vertex -8.573651497465942 4.95 0.8
      vertex -8.573651497465942 4.95 14.8
    endloop
  endfacet
  facet normal 0.8314696123025456 -0.5555702330196017 -3.063845934320391e-19
    outer loop
      vertex -8.573651497465942 4.95 0.8
      vertex -7.854198068883228 6.026738147186335 0.8
      vertex -7.854198068883228 6.026738147186335 14.8
    endloop
  endfacet
  facet normal 0.7518398074789774 -0.6593458151000688 -1.3563408666318804e-18
    outer loop
      vertex -7.854198068883228 6.026738147186335 0.8
      vertex -7.000357133746821 7.000357133746821 0.8
      vertex -7.000357133746821 7.000357133746821 14.8
    endloop
  endfacet
  facet normal 0.6593458151000688 -0.7518398074789774 -1.3563408666318804e-18
    outer loop
      vertex -7.000357133746821 7.000357133746821 0.8
      vertex -6.026738147186335 7.854198068883228 0.8
      vertex -6.026738147186335 7.854198068883228 14.8
    endloop
  endfacet
  facet normal 0 0 1
    outer loop
      vertex -4.95 -8.573651497465942 0.8
      vertex -3.788565980414389 9.14640737186174 0.8
      vertex -4.95 8.573651497465942 0.8
    endloop
  endfacet
  facet normal 0 0 1
    outer loop
      vertex -3.788565980414389 -9.14640737186174 0.8
      vertex -2.5623085465149553 9.562665680261777 0.8
      vertex -3.788565980414389 9.14640737186174 0.8
    endloop
  endfacet
  facet normal 0 0 1
    outer loop
      vertex -2.5623085465149553 -9.562665680261777 0.8
      vertex -1.2922093029785107 9.815304127600724 0.8
      vertex -2.5623085465149553 9.562665680261777 0.8
    endloop
  endfacet
  facet normal 0 0 1
    outer loop
      vertex -1.2922093029785107 -9.815304127600724 0.8
      vertex 0 9.9 0.8
      vertex -1.2922093029785107 9.815304127600724 0.8
    endloop
  endfacet
  facet normal 0.5555702330196017 -0.8314696123025456 -3.063845934320391e-19
    outer loop
      vertex -6.026738147186335 7.854198068883228 0.8
      vertex -4.95 8.573651497465942 0.8
      vertex -4.95 8.573651497465942 14.8
    endloop
  endfacet
  facet normal 0.4422886902190021 -0.896872741532688 -5.527606437138121e-19
    outer loop
      vertex -4.95 8.573651497465942 0.8
      vertex -3.788565980414389 9.14640737186174 0.8
      vertex -3.788565980414389 9.14640737186174 14.8
    endloop
  endfacet
  facet normal 0.3214394653031614 -0.9469301294951057 2.737174381604185e-18
    outer loop
      vertex -3.788565980414389 9.14640737186174 0.8
      vertex -2.5623085465149553 9.562665680261777 0.8
      vertex -2.5623085465149553 9.562665680261777 14.8
    endloop
  endfacet
  facet normal 0.19509032201612855 -0.9807852804032304 5.960451041015721e-19
    outer loop
      vertex -2.5623085465149553 9.562665680261777 0.8
      vertex -1.2922093029785107 9.815304127600724 0.8
      vertex -1.2922093029785107 9.815304127600724 14.8
    endloop
  endfacet
  facet normal 0.06540312923014262 -0.9978589232386035 1.0847960556492475e-19
    outer loop
      vertex -1.2922093029785107 9.815304127600724 0.8
      vertex 0 9.9 0.8
      vertex 0 9.9 14.8
    endloop
  endfacet
  facet normal 0.9978589232386035 -0.06540312923014262 0
    outer loop
      vertex -9.9 0 0.8
      vertex -9.815304127600724 1.2922093029785107 14.8
      vertex -9.9 0 14.8
    endloop
  endfacet
  facet normal 0.9807852804032304 -0.19509032201612855 0
    outer loop
      vertex -9.815304127600724 1.2922093029785107 0.8
      vertex -9.562665680261777 2.5623085465149553 14.8
      vertex -9.815304127600724 1.2922093029785107 14.8
    endloop
  endfacet
  facet normal 0.9469301294951057 -0.3214394653031614 0
    outer loop
      vertex -9.562665680261777 2.5623085465149553 0.8
      vertex -9.14640737186174 3.788565980414389 14.8
      vertex -9.562665680261777 2.5623085465149553 14.8
    endloop
  endfacet
  facet normal 0.896872741532688 -0.4422886902190021 0
    outer loop
      vertex -9.14640737186174 3.788565980414389 0.8
      vertex -8.573651497465942 4.95 14.8
      vertex -9.14640737186174 3.788565980414389 14.8
    endloop
  endfacet
  facet normal 0.8314696123025456 -0.5555702330196017 0
    outer loop
      vertex -8.573651497465942 4.95 0.8
      vertex -7.854198068883228 6.026738147186335 14.8
      vertex -8.573651497465942 4.95 14.8
    endloop
  endfacet
  facet normal 0.7518398074789774 -0.6593458151000688 0
    outer loop
      vertex -7.854198068883228 6.026738147186335 0.8
      vertex -7.000357133746821 7.000357133746821 14.8
      vertex -7.854198068883228 6.026738147186335 14.8
    endloop
  endfacet
  facet normal 0.6593458151000688 -0.7518398074789774 0
    outer loop
      vertex -7.000357133746821 7.000357133746821 0.8
      vertex -6.026738147186335 7.854198068883228 14.8
      vertex -7.000357133746821 7.000357133746821 14.8
    endloop
  endfacet
  facet normal 0.5555702330196017 -0.8314696123025456 0
    outer loop
      vertex -6.026738147186335 7.854198068883228 0.8
      vertex -4.95 8.573651497465942 14.8
      vertex -6.026738147186335 7.854198068883228 14.8
    endloop
  endfacet
  facet normal 0.4422886902190021 -0.896872741532688 0
    outer loop
      vertex -4.95 8.573651497465942 0.8
      vertex -3.788565980414389 9.14640737186174 14.8
      vertex -4.95 8.573651497465942 14.8
    endloop
  endfacet
  facet normal 0.3214394653031614 -0.9469301294951057 0
    outer loop
      vertex -3.788565980414389 9.14640737186174 0.8
      vertex -2.5623085465149553 9.562665680261777 14.8
      vertex -3.788565980414389 9.14640737186174 14.8
    endloop
  endfacet
  facet normal 0.19509032201612855 -0.9807852804032304 0
    outer loop
      vertex -2.5623085465149553 9.562665680261777 0.8
      vertex -1.2922093029785107 9.815304127600724 14.8
      vertex -2.5623085465149553 9.562665680261777 14.8
    endloop
  endfacet
  facet normal 0.06540312923014262 -0.9978589232386035 0
    outer loop
      vertex -1.2922093029785107 9.815304127600724 0.8
      vertex 0 9.9 14.8
      vertex -1.2922093029785107 9.815304127600724 14.8
    endloop
  endfacet
  facet normal -0.06540312923014262 0.9978589232386035 0
    outer loop
      vertex 0 -9.9 0.8
      vertex 0 -9.9 14.8
      vertex 1.2922093029785107 -9.815304127600724 0.8
    endloop
  endfacet
  facet normal -0.19509032201612855 0.9807852804032304 0
    outer loop
      vertex 1.2922093029785107 -9.815304127600724 0.8
      vertex 1.2922093029785107 -9.815304127600724 14.8
      vertex 2.5623085465149553 -9.562665680261777 0.8
    endloop
  endfacet
  facet normal -0.3214394653031614 0.9469301294951057 0
    outer loop
      vertex 2.5623085465149553 -9.562665680261777 0.8
      vertex 2.5623085465149553 -9.562665680261777 14.8
      vertex 3.788565980414389 -9.14640737186174 0.8
    endloop
  endfacet
  facet normal -0.4422886902190021 0.896872741532688 0
    outer loop
      vertex 3.788565980414389 -9.14640737186174 0.8
      vertex 3.788565980414389 -9.14640737186174 14.8
      vertex 4.95 -8.573651497465942 0.8
    endloop
  endfacet
  facet normal -0.5555702330196017 0.8314696123025456 0
    outer loop
      vertex 4.95 -8.573651497465942 0.8
      vertex 4.95 -8.573651497465942 14.8
      vertex 6.026738147186335 -7.854198068883228 0.8
    endloop
  endfacet
  facet normal 0 0 1
    outer loop
      vertex 0 -9.9 0.8
      vertex 1.2922093029785107 -9.815304127600724 0.8
      vertex 1.2922093029785107 9.815304127600724 0.8
    endloop
  endfacet
  facet normal 0 0 1
    outer loop
      vertex 1.2922093029785107 -9.815304127600724 0.8
      vertex 2.5623085465149553 -9.562665680261777 0.8
      vertex 2.5623085465149553 9.562665680261777 0.8
    endloop
  endfacet
  facet normal 0 0 1
    outer loop
      vertex 2.5623085465149553 -9.562665680261777 0.8
      vertex 3.788565980414389 -9.14640737186174 0.8
      vertex 3.788565980414389 9.14640737186174 0.8
    endloop
  endfacet
  facet normal 0 0 1
    outer loop
      vertex 3.788565980414389 -9.14640737186174 0.8
      vertex 4.95 -8.573651497465942 0.8
      vertex 4.95 8.573651497465942 0.8
    endloop
  endfacet
  facet normal -0.6593458151000688 0.7518398074789774 0
    outer loop
      vertex 6.026738147186335 -7.854198068883228 0.8
      vertex 6.026738147186335 -7.854198068883228 14.8
      vertex 7.000357133746821 -7.000357133746821 0.8
    endloop
  endfacet
  facet normal -0.7518398074789774 0.6593458151000688 0
    outer loop
      vertex 7.000357133746821 -7.000357133746821 0.8
      vertex 7.000357133746821 -7.000357133746821 14.8
      vertex 7.854198068883228 -6.026738147186335 0.8
    endloop
  endfacet
  facet normal -0.8314696123025456 0.5555702330196017 0
    outer loop
      vertex 7.854198068883228 -6.026738147186335 0.8
      vertex 7.854198068883228 -6.026738147186335 14.8
      vertex 8.573651497465942 -4.95 0.8
    endloop
  endfacet
  facet normal 0 0 1
    outer loop
      vertex 4.95 -8.573651497465942 0.8
      vertex 6.026738147186335 -7.854198068883228 0.8
      vertex 6.026738147186335 7.854198068883228 0.8
    endloop
  endfacet
  facet normal 0 0 1
    outer loop
      vertex 6.026738147186335 -7.854198068883228 0.8
      vertex 7.000357133746821 -7.000357133746821 0.8
      vertex 7.000357133746821 7.000357133746821 0.8
    endloop
  endfacet
  facet normal 0 0 1
    outer loop
      vertex 7.000357133746821 -7.000357133746821 0.8
      vertex 7.854198068883228 -6.026738147186335 0.8
      vertex 7.854198068883228 6.026738147186335 0.8
    endloop
  endfacet
  facet normal 0 0 1
    outer loop
      vertex 7.854198068883228 -6.026738147186335 0.8
      vertex 8.573651497465942 -4.95 0.8
      vertex 8.573651497465942 4.95 0.8
    endloop
  endfacet
  facet normal 0 0 1
    outer loop
      vertex 8.573651497465942 -4.95 0.8
      vertex 9.14640737186174 -3.788565980414389 0.8
      vertex 9.14640737186174 3.788565980414389 0.8
    endloop
  endfacet
  facet normal 0 0 1
    outer loop
      vertex 9.14640737186174 -3.788565980414389 0.8
      vertex 9.562665680261777 -2.5623085465149553 0.8
      vertex 9.562665680261777 2.5623085465149553 0.8
    endloop
  endfacet
  facet normal 0 0 1
    outer loop
      vertex 9.562665680261777 -2.5623085465149553 0.8
      vertex 9.815304127600724 -1.2922093029785107 0.8
      vertex 9.815304127600724 1.2922093029785107 0.8
    endloop
  endfacet
  facet normal -0.896872741532688 0.4422886902190021 0
    outer loop
      vertex 8.573651497465942 -4.95 0.8
      vertex 8.573651497465942 -4.95 14.8
      vertex 9.14640737186174 -3.788565980414389 0.8
    endloop
  endfacet
  facet normal -0.9469301294951057 0.3214394653031614 0
    outer loop
      vertex 9.14640737186174 -3.788565980414389 0.8
      vertex 9.14640737186174 -3.788565980414389 14.8
      vertex 9.562665680261777 -2.5623085465149553 0.8
    endloop
  endfacet
  facet normal -0.9807852804032304 0.19509032201612855 0
    outer loop
      vertex 9.562665680261777 -2.5623085465149553 0.8
      vertex 9.562665680261777 -2.5623085465149553 14.8
      vertex 9.815304127600724 -1.2922093029785107 0.8
    endloop
  endfacet
  facet normal -0.9978589232386035 0.06540312923014262 0
    outer loop
      vertex 9.815304127600724 -1.2922093029785107 0.8
      vertex 9.815304127600724 -1.2922093029785107 14.8
      vertex 9.9 0 0.8
    endloop
  endfacet
  facet normal -0.06540312923014262 0.9978589232386035 0
    outer loop
      vertex 1.2922093029785107 -9.815304127600724 0.8
      vertex 0 -9.9 14.8
      vertex 1.2922093029785107 -9.815304127600724 14.8
    endloop
  endfacet
  facet normal -0.19509032201612855 0.9807852804032304 0
    outer loop
      vertex 2.5623085465149553 -9.562665680261777 0.8
      vertex 1.2922093029785107 -9.815304127600724 14.8
      vertex 2.5623085465149553 -9.562665680261777 14.8
    endloop
  endfacet
  facet normal -0.3214394653031614 0.9469301294951057 0
    outer loop
      vertex 3.788565980414389 -9.14640737186174 0.8
      vertex 2.5623085465149553 -9.562665680261777 14.8
      vertex 3.788565980414389 -9.14640737186174 14.8
    endloop
  endfacet
  facet normal -0.4422886902190021 0.896872741532688 0
    outer loop
      vertex 4.95 -8.573651497465942 0.8
      vertex 3.788565980414389 -9.14640737186174 14.8
      vertex 4.95 -8.573651497465942 14.8
    endloop
  endfacet
  facet normal -0.5555702330196017 0.8314696123025456 0
    outer loop
      vertex 6.026738147186335 -7.854198068883228 0.8
      vertex 4.95 -8.573651497465942 14.8
      vertex 6.026738147186335 -7.854198068883228 14.8
    endloop
  endfacet
  facet normal -0.6593458151000688 0.7518398074789774 0
    outer loop
      vertex 7.000357133746821 -7.000357133746821 0.8
      vertex 6.026738147186335 -7.854198068883228 14.8
      vertex 7.000357133746821 -7.000357133746821 14.8
    endloop
  endfacet
  facet normal -0.7518398074789774 0.6593458151000688 0
    outer loop
      vertex 7.854198068883228 -6.026738147186335 0.8
      vertex 7.000357133746821 -7.000357133746821 14.8
      vertex 7.854198068883228 -6.026738147186335 14.8
    endloop
  endfacet
  facet normal -0.8314696123025456 0.5555702330196017 0
    outer loop
      vertex 8.573651497465942 -4.95 0.8
      vertex 7.854198068883228 -6.026738147186335 14.8
      vertex 8.573651497465942 -4.95 14.8
    endloop
  endfacet
  facet normal -0.896872741532688 0.4422886902190021 0
    outer loop
      vertex 9.14640737186174 -3.788565980414389 0.8
      vertex 8.573651497465942 -4.95 14.8
      vertex 9.14640737186174 -3.788565980414389 14.8
    endloop
  endfacet
  facet normal -0.9469301294951057 0.3214394653031614 0
    outer loop
      vertex 9.562665680261777 -2.5623085465149553 0.8
      vertex 9.14640737186174 -3.788565980414389 14.8
      vertex 9.562665680261777 -2.5623085465149553 14.8
    endloop
  endfacet
  facet normal -0.9807852804032304 0.19509032201612855 0
    outer loop
      vertex 9.815304127600724 -1.2922093029785107 0.8
      vertex 9.562665680261777 -2.5623085465149553 14.8
      vertex 9.815304127600724 -1.2922093029785107 14.8
    endloop
  endfacet
  facet normal -0.9978589232386035 0.06540312923014262 0
    outer loop
      vertex 9.9 0 0.8
      vertex 9.815304127600724 -1.2922093029785107 14.8
      vertex 9.9 0 14.8
    endloop
  endfacet
  facet normal 0 0 1
    outer loop
      vertex 0 -9.9 0.8
      vertex 1.2922093029785107 9.815304127600724 0.8
      vertex 0 9.9 0.8
    endloop
  endfacet
  facet normal 0 0 1
    outer loop
      vertex 1.2922093029785107 -9.815304127600724 0.8
      vertex 2.5623085465149553 9.562665680261777 0.8
      vertex 1.2922093029785107 9.815304127600724 0.8
    endloop
  endfacet
  facet normal 0 0 1
    outer loop
      vertex 4.95 -8.573651497465942 0.8
      vertex 6.026738147186335 7.854198068883228 0.8
      vertex 4.95 8.573651497465942 0.8
    endloop
  endfacet
  facet normal 0 0 1
    outer loop
      vertex 2.5623085465149553 -9.562665680261777 0.8
      vertex 3.788565980414389 9.14640737186174 0.8
      vertex 2.5623085465149553 9.562665680261777 0.8
    endloop
  endfacet
  facet normal 0 0 1
    outer loop
      vertex 3.788565980414389 -9.14640737186174 0.8
      vertex 4.95 8.573651497465942 0.8
      vertex 3.788565980414389 9.14640737186174 0.8
    endloop
  endfacet
  facet normal -0.06540312923014262 -0.9978589232386035 -1.0847960556492475e-19
    outer loop
      vertex 0 9.9 0.8
      vertex 1.2922093029785107 9.815304127600724 0.8
      vertex 1.2922093029785107 9.815304127600724 14.8
    endloop
  endfacet
  facet normal -0.19509032201612855 -0.9807852804032304 -5.960451041015721e-19
    outer loop
      vertex 1.2922093029785107 9.815304127600724 0.8
      vertex 2.5623085465149553 9.562665680261777 0.8
      vertex 2.5623085465149553 9.562665680261777 14.8
    endloop
  endfacet
  facet normal -0.3214394653031614 -0.9469301294951057 -2.737174381604185e-18
    outer loop
      vertex 2.5623085465149553 9.562665680261777 0.8
      vertex 3.788565980414389 9.14640737186174 0.8
      vertex 3.788565980414389 9.14640737186174 14.8
    endloop
  endfacet
  facet normal -0.4422886902190021 -0.896872741532688 5.527606437138121e-19
    outer loop
      vertex 3.788565980414389 9.14640737186174 0.8
      vertex 4.95 8.573651497465942 0.8
      vertex 4.95 8.573651497465942 14.8
    endloop
  endfacet
  facet normal 0 0 1
    outer loop
      vertex 6.026738147186335 -7.854198068883228 0.8
      vertex 7.000357133746821 7.000357133746821 0.8
      vertex 6.026738147186335 7.854198068883228 0.8
    endloop
  endfacet
  facet normal 0 0 1
    outer loop
      vertex 7.000357133746821 -7.000357133746821 0.8
      vertex 7.854198068883228 6.026738147186335 0.8
      vertex 7.000357133746821 7.000357133746821 0.8
    endloop
  endfacet
  facet normal 0 0 1
    outer loop
      vertex 7.854198068883228 -6.026738147186335 0.8
      vertex 8.573651497465942 4.95 0.8
      vertex 7.854198068883228 6.026738147186335 0.8
    endloop
  endfacet
  facet normal 0 0 1
    outer loop
      vertex 8.573651497465942 -4.95 0.8
      vertex 9.14640737186174 3.788565980414389 0.8
      vertex 8.573651497465942 4.95 0.8
    endloop
  endfacet
  facet normal 0 0 1
    outer loop
      vertex 9.562665680261777 -2.5623085465149553 0.8
      vertex 9.815304127600724 1.2922093029785107 0.8
      vertex 9.562665680261777 2.5623085465149553 0.8
    endloop
  endfacet
  facet normal 0 0 1
    outer loop
      vertex 9.14640737186174 -3.788565980414389 0.8
      vertex 9.562665680261777 2.5623085465149553 0.8
      vertex 9.14640737186174 3.788565980414389 0.8
    endloop
  endfacet
  facet normal 0 0 1
    outer loop
      vertex 9.815304127600724 -1.2922093029785107 0.8
      vertex 9.9 0 0.8
      vertex 9.815304127600724 1.2922093029785107 0.8
    endloop
  endfacet
  facet normal -0.8314696123025456 -0.5555702330196017 3.063845934320391e-19
    outer loop
      vertex 7.854198068883228 6.026738147186335 0.8
      vertex 8.573651497465942 4.95 0.8
      vertex 8.573651497465942 4.95 14.8
    endloop
  endfacet
  facet normal -0.9807852804032304 -0.19509032201612855 0
    outer loop
      vertex 9.815304127600724 1.2922093029785107 0.8
      vertex 9.815304127600724 1.2922093029785107 14.8
      vertex 9.562665680261777 2.5623085465149553 0.8
    endloop
  endfacet
  facet normal -0.9978589232386035 -0.06540312923014262 0
    outer loop
      vertex 9.9 0 0.8
      vertex 9.9 0 14.8
      vertex 9.815304127600724 1.2922093029785107 0.8
    endloop
  endfacet
  facet normal -0.896872741532688 -0.4422886902190021 0
    outer loop
      vertex 9.14640737186174 3.788565980414389 0.8
      vertex 9.14640737186174 3.788565980414389 14.8
      vertex 8.573651497465942 4.95 0.8
    endloop
  endfacet
  facet normal -0.9469301294951057 -0.3214394653031614 0
    outer loop
      vertex 9.562665680261777 2.5623085465149553 0.8
      vertex 9.562665680261777 2.5623085465149553 14.8
      vertex 9.14640737186174 3.788565980414389 0.8
    endloop
  endfacet
  facet normal -0.5555702330196017 -0.8314696123025456 3.063845934320391e-19
    outer loop
      vertex 4.95 8.573651497465942 0.8
      vertex 6.026738147186335 7.854198068883228 0.8
      vertex 6.026738147186335 7.854198068883228 14.8
    endloop
  endfacet
  facet normal -0.6593458151000688 -0.7518398074789774 0
    outer loop
      vertex 7.000357133746821 7.000357133746821 0.8
      vertex 7.000357133746821 7.000357133746821 14.8
      vertex 6.026738147186335 7.854198068883228 0.8
    endloop
  endfacet
  facet normal -0.7518398074789774 -0.6593458151000688 1.3563408666318804e-18
    outer loop
      vertex 7.000357133746821 7.000357133746821 0.8
      vertex 7.854198068883228 6.026738147186335 0.8
      vertex 7.854198068883228 6.026738147186335 14.8
    endloop
  endfacet
  facet normal -0.06540312923014262 -0.9978589232386035 0
    outer loop
      vertex 0 9.9 0.8
      vertex 1.2922093029785107 9.815304127600724 14.8
      vertex 0 9.9 14.8
    endloop
  endfacet
  facet normal -0.19509032201612855 -0.9807852804032304 0
    outer loop
      vertex 1.2922093029785107 9.815304127600724 0.8
      vertex 2.5623085465149553 9.562665680261777 14.8
      vertex 1.2922093029785107 9.815304127600724 14.8
    endloop
  endfacet
  facet normal -0.5555702330196017 -0.8314696123025456 0
    outer loop
      vertex 4.95 8.573651497465942 0.8
      vertex 6.026738147186335 7.854198068883228 14.8
      vertex 4.95 8.573651497465942 14.8
    endloop
  endfacet
  facet normal -0.3214394653031614 -0.9469301294951057 0
    outer loop
      vertex 2.5623085465149553 9.562665680261777 0.8
      vertex 3.788565980414389 9.14640737186174 14.8
      vertex 2.5623085465149553 9.562665680261777 14.8
    endloop
  endfacet
  facet normal -0.4422886902190021 -0.896872741532688 0
    outer loop
      vertex 3.788565980414389 9.14640737186174 0.8
      vertex 4.95 8.573651497465942 14.8
      vertex 3.788565980414389 9.14640737186174 14.8
    endloop
  endfacet
  facet normal -0.9807852804032304 -0.19509032201612855 0
    outer loop
      vertex 9.562665680261777 2.5623085465149553 0.8
      vertex 9.815304127600724 1.2922093029785107 14.8
      vertex 9.562665680261777 2.5623085465149553 14.8
    endloop
  endfacet
  facet normal -0.9978589232386035 -0.06540312923014262 0
    outer loop
      vertex 9.815304127600724 1.2922093029785107 0.8
      vertex 9.9 0 14.8
      vertex 9.815304127600724 1.2922093029785107 14.8
    endloop
  endfacet
  facet normal -0.9469301294951057 -0.3214394653031614 0
    outer loop
      vertex 9.14640737186174 3.788565980414389 0.8
      vertex 9.562665680261777 2.5623085465149553 14.8
      vertex 9.14640737186174 3.788565980414389 14.8
    endloop
  endfacet
  facet normal -0.896872741532688 -0.4422886902190021 0
    outer loop
      vertex 8.573651497465942 4.95 0.8
      vertex 9.14640737186174 3.788565980414389 14.8
      vertex 8.573651497465942 4.95 14.8
    endloop
  endfacet
  facet normal -0.6593458151000688 -0.7518398074789774 0
    outer loop
      vertex 6.026738147186335 7.854198068883228 0.8
      vertex 7.000357133746821 7.000357133746821 14.8
      vertex 6.026738147186335 7.854198068883228 14.8
    endloop
  endfacet
  facet normal -0.7518398074789774 -0.6593458151000688 0
    outer loop
      vertex 7.000357133746821 7.000357133746821 0.8
      vertex 7.854198068883228 6.026738147186335 14.8
      vertex 7.000357133746821 7.000357133746821 14.8
    endloop
  endfacet
  facet normal -0.8314696123025456 -0.5555702330196017 0
    outer loop
      vertex 7.854198068883228 6.026738147186335 0.8
      vertex 8.573651497465942 4.95 14.8
      vertex 7.854198068883228 6.026738147186335 14.8
    endloop
  endfacet
endsolid OpenSCAD_Model
