solid OpenSCAD_Model
  facet normal 0 0 -1
    outer loop
      vertex -12.693653444659763 -9.74018286413953 0
      vertex -13.856406460551018 -8 0
      vertex -12.297560733739028 -7.1 0
    endloop
  endfacet
  facet normal 0 0 -1
    outer loop
      vertex -12.693653444659763 -9.74018286413953 0
      vertex -12.297560733739028 -7.1 0
      vertex -11.265617432135539 -8.644412291923834 0
    endloop
  endfacet
  facet normal 0 0 -1
    outer loop
      vertex -9.74018286413953 -12.693653444659763 0
      vertex -7.1 -12.297560733739028 0
      vertex -8 -13.856406460551018 0
    endloop
  endfacet
  facet normal 0 0 -1
    outer loop
      vertex -9.74018286413953 -12.693653444659763 0
      vertex -8.644412291923834 -11.265617432135539 0
      vertex -7.1 -12.297560733739028 0
    endloop
  endfacet
  facet normal 0 0 -1
    outer loop
      vertex -12.693653444659763 -9.74018286413953 0
      vertex -11.265617432135539 -8.644412291923834 0
      vertex -11.313708498984761 -11.313708498984761 0
    endloop
  endfacet
  facet normal 0 0 -1
    outer loop
      vertex -11.313708498984761 -11.313708498984761 0
      vertex -11.265617432135539 -8.644412291923834 0
      vertex -10.040916292848975 -10.040916292848975 0
    endloop
  endfacet
  facet normal 0 0 -1
    outer loop
      vertex -9.74018286413953 -12.693653444659763 0
      vertex -11.313708498984761 -11.313708498984761 0
      vertex -8.644412291923834 -11.265617432135539 0
    endloop
  endfacet
  facet normal 0 0 -1
    outer loop
      vertex -11.313708498984761 -11.313708498984761 0
      vertex -10.040916292848975 -10.040916292848975 0
      vertex -8.644412291923834 -11.265617432135539 0
    endloop
  endfacet
  facet normal -0.7518398074789776 -0.6593458151000686 0
    outer loop
      vertex -12.693653444659763 -9.74018286413953 0
      vertex -11.313708498984761 -11.313708498984761 0
      vertex -12.693653444659763 -9.74018286413953 30
    endloop
  endfacet
  facet normal -0.8314696123025453 -0.5555702330196018 3.0999534393470943e-18
    outer loop
      vertex -12.693653444659763 -9.74018286413953 0
      vertex -13.856406460551018 -8 30
      vertex -13.856406460551018 -8 0
    endloop
  endfacet
  facet normal -0.6593458151000686 -0.7518398074789776 0
    outer loop
      vertex -9.74018286413953 -12.693653444659763 0
      vertex -9.74018286413953 -12.693653444659763 30
      vertex -11.313708498984761 -11.313708498984761 0
    endloop
  endfacet
  facet normal -0.5555702330196018 -0.8314696123025453 3.0999534393470943e-18
    outer loop
      vertex -9.74018286413953 -12.693653444659763 0
      vertex -8 -13.856406460551018 0
      vertex -8 -13.856406460551018 30
    endloop
  endfacet
  facet normal 0 0 -1
    outer loop
      vertex -14.782072520180588 -6.1229349178414365 0
      vertex -13.71614673330477 -3.6752304404557945 0
      vertex -13.856406460551018 -8 0
    endloop
  endfacet
  facet normal 0 0 -1
    outer loop
      vertex -13.856406460551018 -8 0
      vertex -13.11908936166027 -5.434104739584274 0
      vertex -12.297560733739028 -7.1 0
    endloop
  endfacet
  facet normal 0 0 -1
    outer loop
      vertex -13.856406460551018 -8 0
      vertex -13.71614673330477 -3.6752304404557945 0
      vertex -13.11908936166027 -5.434104739584274 0
    endloop
  endfacet
  facet normal 0 0 -1
    outer loop
      vertex -14.782072520180588 -6.1229349178414365 0
      vertex -14.078517031508106 -1.8534719295247322 0
      vertex -13.71614673330477 -3.6752304404557945 0
    endloop
  endfacet
  facet normal 0 0 -1
    outer loop
      vertex -14.782072520180588 -6.1229349178414365 0
      vertex -14.2 0 0
      vertex -14.078517031508106 -1.8534719295247322 0
    endloop
  endfacet
  facet normal 0 0 -1
    outer loop
      vertex -14.782072520180588 -6.1229349178414365 0
      vertex -15.454813220625093 -4.141104721640332 0
      vertex -14.782072520180588 6.1229349178414365 0
    endloop
  endfacet
  facet normal 0 0 -1
    outer loop
      vertex -15.454813220625093 -4.141104721640332 0
      vertex -15.863117781980966 -2.088419075520825 0
      vertex -15.454813220625093 4.141104721640332 0
    endloop
  endfacet
  facet normal -0.8968727415326881 -0.4422886902190015 0
    outer loop
      vertex -14.782072520180588 -6.1229349178414365 0
      vertex -13.856406460551018 -8 0
      vertex -14.782072520180588 -6.1229349178414365 30
    endloop
  endfacet
  facet normal -0.9469301294951056 -0.3214394653031618 1.31868302601697e-18
    outer loop
      vertex -14.782072520180588 -6.1229349178414365 0
      vertex -15.454813220625093 -4.141104721640332 30
      vertex -15.454813220625093 -4.141104721640332 0
    endloop
  endfacet
  facet normal -0.9807852804032305 -0.1950903220161279 -1.194965111243929e-19
    outer loop
      vertex -15.454813220625093 -4.141104721640332 0
      vertex -15.863117781980966 -2.088419075520825 30
      vertex -15.863117781980966 -2.088419075520825 0
    endloop
  endfacet
  facet normal -0.9978589232386035 -0.0654031292301433 2.7723669605844475e-19
    outer loop
      vertex -15.863117781980966 -2.088419075520825 0
      vertex -16 0 30
      vertex -16 0 0
    endloop
  endfacet
  facet normal 0 0 -1
    outer loop
      vertex -6.1229349178414365 -14.782072520180588 0
      vertex -8 -13.856406460551018 0
      vertex -5.434104739584274 -13.11908936166027 0
    endloop
  endfacet
  facet normal 0 0 -1
    outer loop
      vertex -8 -13.856406460551018 0
      vertex -7.1 -12.297560733739028 0
      vertex -5.434104739584274 -13.11908936166027 0
    endloop
  endfacet
  facet normal 0 0 -1
    outer loop
      vertex -6.1229349178414365 -14.782072520180588 0
      vertex -3.6752304404557945 -13.71614673330477 0
      vertex -4.141104721640332 -15.454813220625093 0
    endloop
  endfacet
  facet normal 0 0 -1
    outer loop
      vertex -6.1229349178414365 -14.782072520180588 0
      vertex -5.434104739584274 -13.11908936166027 0
      vertex -3.6752304404557945 -13.71614673330477 0
    endloop
  endfacet
  facet normal 0 0 -1
    outer loop
      vertex -4.141104721640332 -15.454813220625093 0
      vertex -3.6752304404557945 -13.71614673330477 0
      vertex -1.8534719295247322 -14.078517031508106 0
    endloop
  endfacet
  facet normal 0 0 -1
    outer loop
      vertex -4.141104721640332 -15.454813220625093 0
      vertex -1.8534719295247322 -14.078517031508106 0
      vertex -2.088419075520825 -15.863117781980966 0
    endloop
  endfacet
  facet normal 0 0 -1
    outer loop
      vertex -2.088419075520825 -15.863117781980966 0
      vertex -1.8534719295247322 -14.078517031508106 0
      vertex 0 -14.2 0
    endloop
  endfacet
  facet normal 0 0 -1
    outer loop
      vertex -2.088419075520825 -15.863117781980966 0
      vertex 0 -14.2 0
      vertex 0 -16 0
    endloop
  endfacet
  facet normal -0.4422886902190015 -0.8968727415326881 0
    outer loop
      vertex -6.1229349178414365 -14.782072520180588 0
      vertex -6.1229349178414365 -14.782072520180588 30
      vertex -8 -13.856406460551018 0
    endloop
  endfacet
  facet normal -0.3214394653031618 -0.9469301294951056 1.31868302601697e-18
    outer loop
      vertex -6.1229349178414365 -14.782072520180588 0
      vertex -4.141104721640332 -15.454813220625093 0
      vertex -4.141104721640332 -15.454813220625093 30
    endloop
  endfacet
  facet normal -0.1950903220161279 -0.9807852804032305 -1.194965111243929e-19
    outer loop
      vertex -4.141104721640332 -15.454813220625093 0
      vertex -2.088419075520825 -15.863117781980966 0
      vertex -2.088419075520825 -15.863117781980966 30
    endloop
  endfacet
  facet normal -0.0654031292301433 -0.9978589232386035 2.7723669605844475e-19
    outer loop
      vertex -2.088419075520825 -15.863117781980966 0
      vertex 0 -16 0
      vertex 0 -16 30
    endloop
  endfacet
  facet normal -0.8314696123025453 -0.5555702330196018 0
    outer loop
      vertex -12.693653444659763 -9.74018286413953 0
      vertex -12.693653444659763 -9.74018286413953 30
      vertex -13.856406460551018 -8 30
    endloop
  endfacet
  facet normal -0.5555702330196018 -0.8314696123025453 0
    outer loop
      vertex -9.74018286413953 -12.693653444659763 0
      vertex -8 -13.856406460551018 30
      vertex -9.74018286413953 -12.693653444659763 30
    endloop
  endfacet
  facet normal -0.7518398074789776 -0.6593458151000686 0
    outer loop
      vertex -11.313708498984761 -11.313708498984761 0
      vertex -11.313708498984761 -11.313708498984761 30
      vertex -12.693653444659763 -9.74018286413953 30
    endloop
  endfacet
  facet normal -0.6593458151000686 -0.7518398074789776 0
    outer loop
      vertex -11.313708498984761 -11.313708498984761 0
      vertex -9.74018286413953 -12.693653444659763 30
      vertex -11.313708498984761 -11.313708498984761 30
    endloop
  endfacet
  facet normal 0 0 1
    outer loop
      vertex -12.693653444659763 -9.74018286413953 30
      vertex -11.313708498984761 -11.313708498984761 30
      vertex -12.297560733739028 -7.1 30
    endloop
  endfacet
  facet normal 0 0 1
    outer loop
      vertex -9.74018286413953 -12.693653444659763 30
      vertex -8 -13.856406460551018 30
      vertex -8.644412291923834 -11.265617432135539 30
    endloop
  endfacet
  facet normal 0 0 1
    outer loop
      vertex -9.74018286413953 -12.693653444659763 30
      vertex -10.040916292848975 -10.040916292848975 30
      vertex -11.313708498984761 -11.313708498984761 30
    endloop
  endfacet
  facet normal 0 0 1
    outer loop
      vertex -11.313708498984761 -11.313708498984761 30
      vertex -11.265617432135539 -8.644412291923834 30
      vertex -12.297560733739028 -7.1 30
    endloop
  endfacet
  facet normal 0 0 1
    outer loop
      vertex -11.313708498984761 -11.313708498984761 30
      vertex -10.040916292848975 -10.040916292848975 30
      vertex -11.265617432135539 -8.644412291923834 30
    endloop
  endfacet
  facet normal 0 0 1
    outer loop
      vertex -9.74018286413953 -12.693653444659763 30
      vertex -8.644412291923834 -11.265617432135539 30
      vertex -10.040916292848975 -10.040916292848975 30
    endloop
  endfacet
  facet normal -0.8968727415326881 -0.4422886902190015 0
    outer loop
      vertex -13.856406460551018 -8 0
      vertex -13.856406460551018 -8 30
      vertex -14.782072520180588 -6.1229349178414365 30
    endloop
  endfacet
  facet normal -0.9469301294951056 -0.3214394653031618 0
    outer loop
      vertex -14.782072520180588 -6.1229349178414365 0
      vertex -14.782072520180588 -6.1229349178414365 30
      vertex -15.454813220625093 -4.141104721640332 30
    endloop
  endfacet
  facet normal -0.9807852804032305 -0.1950903220161279 0
    outer loop
      vertex -15.454813220625093 -4.141104721640332 0
      vertex -15.454813220625093 -4.141104721640332 30
      vertex -15.863117781980966 -2.088419075520825 30
    endloop
  endfacet
  facet normal -0.9978589232386035 -0.0654031292301433 0
    outer loop
      vertex -15.863117781980966 -2.088419075520825 0
      vertex -15.863117781980966 -2.088419075520825 30
      vertex -16 0 30
    endloop
  endfacet
  facet normal 0 0 1
    outer loop
      vertex -12.693653444659763 -9.74018286413953 30
      vertex -13.11908936166027 -5.434104739584274 30
      vertex -13.856406460551018 -8 30
    endloop
  endfacet
  facet normal 0 0 1
    outer loop
      vertex -12.693653444659763 -9.74018286413953 30
      vertex -12.297560733739028 -7.1 30
      vertex -13.11908936166027 -5.434104739584274 30
    endloop
  endfacet
  facet normal 0 0 1
    outer loop
      vertex -13.856406460551018 -8 30
      vertex -13.11908936166027 -5.434104739584274 30
      vertex -13.71614673330477 -3.6752304404557945 30
    endloop
  endfacet
  facet normal 0 0 1
    outer loop
      vertex -13.856406460551018 -8 30
      vertex -13.71614673330477 -3.6752304404557945 30
      vertex -14.078517031508106 -1.8534719295247322 30
    endloop
  endfacet
  facet normal 0 0 1
    outer loop
      vertex -14.782072520180588 -6.1229349178414365 30
      vertex -15.454813220625093 4.141104721640332 30
      vertex -15.454813220625093 -4.141104721640332 30
    endloop
  endfacet
  facet normal 0 0 1
    outer loop
      vertex -13.856406460551018 -8 30
      vertex -14.078517031508106 -1.8534719295247322 30
      vertex -14.2 0 30
    endloop
  endfacet
  facet normal 0 0 1
    outer loop
      vertex -14.782072520180588 -6.1229349178414365 30
      vertex -13.856406460551018 -8 30
      vertex -14.782072520180588 6.1229349178414365 30
    endloop
  endfacet
  facet normal 0 0 1
    outer loop
      vertex -15.454813220625093 -4.141104721640332 30
      vertex -15.863117781980966 2.088419075520825 30
      vertex -15.863117781980966 -2.088419075520825 30
    endloop
  endfacet
  facet normal 0 0 1
    outer loop
      vertex -13.856406460551018 -8 30
      vertex -14.2 0 30
      vertex -14.782072520180588 6.1229349178414365 30
    endloop
  endfacet
  facet normal -0.4422886902190015 -0.8968727415326881 0
    outer loop
      vertex -8 -13.856406460551018 0
      vertex -6.1229349178414365 -14.782072520180588 30
      vertex -8 -13.856406460551018 30
    endloop
  endfacet
  facet normal -0.3214394653031618 -0.9469301294951056 0
    outer loop
      vertex -6.1229349178414365 -14.782072520180588 0
      vertex -4.141104721640332 -15.454813220625093 30
      vertex -6.1229349178414365 -14.782072520180588 30
    endloop
  endfacet
  facet normal -0.1950903220161279 -0.9807852804032305 0
    outer loop
      vertex -4.141104721640332 -15.454813220625093 0
      vertex -2.088419075520825 -15.863117781980966 30
      vertex -4.141104721640332 -15.454813220625093 30
    endloop
  endfacet
  facet normal -0.0654031292301433 -0.9978589232386035 0
    outer loop
      vertex -2.088419075520825 -15.863117781980966 0
      vertex 0 -16 30
      vertex -2.088419075520825 -15.863117781980966 30
    endloop
  endfacet
  facet normal 0 0 1
    outer loop
      vertex -6.1229349178414365 -14.782072520180588 30
      vertex -7.1 -12.297560733739028 30
      vertex -8 -13.856406460551018 30
    endloop
  endfacet
  facet normal 0 0 1
    outer loop
      vertex -8 -13.856406460551018 30
      vertex -7.1 -12.297560733739028 30
      vertex -8.644412291923834 -11.265617432135539 30
    endloop
  endfacet
  facet normal 0 0 1
    outer loop
      vertex -6.1229349178414365 -14.782072520180588 30
      vertex -5.434104739584274 -13.11908936166027 30
      vertex -7.1 -12.297560733739028 30
    endloop
  endfacet
  facet normal 0 0 1
    outer loop
      vertex -6.1229349178414365 -14.782072520180588 30
      vertex -4.141104721640332 -15.454813220625093 30
      vertex -5.434104739584274 -13.11908936166027 30
    endloop
  endfacet
  facet normal 0 0 1
    outer loop
      vertex -4.141104721640332 -15.454813220625093 30
      vertex -3.6752304404557945 -13.71614673330477 30
      vertex -5.434104739584274 -13.11908936166027 30
    endloop
  endfacet
  facet normal 0 0 1
    outer loop
      vertex -4.141104721640332 -15.454813220625093 30
      vertex -2.088419075520825 -15.863117781980966 30
      vertex -3.6752304404557945 -13.71614673330477 30
    endloop
  endfacet
  facet normal 0 0 1
    outer loop
      vertex -2.088419075520825 -15.863117781980966 30
      vertex -1.8534719295247322 -14.078517031508106 30
      vertex -3.6752304404557945 -13.71614673330477 30
    endloop
  endfacet
  facet normal 0 0 1
    outer loop
      vertex -2.088419075520825 -15.863117781980966 30
      vertex 0 -16 30
      vertex -1.8534719295247322 -14.078517031508106 30
    endloop
  endfacet
  facet normal 0 0 1
    outer loop
      vertex 0 -16 30
      vertex 0 -14.2 30
      vertex -1.8534719295247322 -14.078517031508106 30
    endloop
  endfacet
  facet normal 0 0 -1
    outer loop
      vertex -15.863117781980966 -2.088419075520825 0
      vertex -16 0 0
      vertex -15.863117781980966 2.088419075520825 0
    endloop
  endfacet
  facet normal 0 0 -1
    outer loop
      vertex -15.863117781980966 -2.088419075520825 0
      vertex -15.863117781980966 2.088419075520825 0
      vertex -15.454813220625093 4.141104721640332 0
    endloop
  endfacet
  facet normal 0 0 -1
    outer loop
      vertex -14.782072520180588 -6.1229349178414365 0
      vertex -13.856406460551018 8 0
      vertex -14.2 0 0
    endloop
  endfacet
  facet normal 0 0 -1
    outer loop
      vertex -15.454813220625093 -4.141104721640332 0
      vertex -15.454813220625093 4.141104721640332 0
      vertex -14.782072520180588 6.1229349178414365 0
    endloop
  endfacet
  facet normal 0 0 -1
    outer loop
      vertex -14.782072520180588 -6.1229349178414365 0
      vertex -14.782072520180588 6.1229349178414365 0
      vertex -13.856406460551018 8 0
    endloop
  endfacet
  facet normal 0 0 -1
    outer loop
      vertex -13.856406460551018 8 0
      vertex -14.078517031508106 1.8534719295247322 0
      vertex -14.2 0 0
    endloop
  endfacet
  facet normal 0 0 -1
    outer loop
      vertex -13.856406460551018 8 0
      vertex -13.71614673330477 3.6752304404557945 0
      vertex -14.078517031508106 1.8534719295247322 0
    endloop
  endfacet
  facet normal 0 0 -1
    outer loop
      vertex -13.856406460551018 8 0
      vertex -13.11908936166027 5.434104739584274 0
      vertex -13.71614673330477 3.6752304404557945 0
    endloop
  endfacet
  facet normal 0 0 -1
    outer loop
      vertex -13.856406460551018 8 0
      vertex -12.693653444659763 9.74018286413953 0
      vertex -13.11908936166027 5.434104739584274 0
    endloop
  endfacet
  facet normal 0 0 -1
    outer loop
      vertex -12.693653444659763 9.74018286413953 0
      vertex -12.297560733739028 7.1 0
      vertex -13.11908936166027 5.434104739584274 0
    endloop
  endfacet
  facet normal -0.9978589232386035 0.0654031292301433 -2.7723669605844475e-19
    outer loop
      vertex -16 0 0
      vertex -15.863117781980966 2.088419075520825 30
      vertex -15.863117781980966 2.088419075520825 0
    endloop
  endfacet
  facet normal -0.9807852804032305 0.1950903220161279 1.194965111243929e-19
    outer loop
      vertex -15.863117781980966 2.088419075520825 0
      vertex -15.454813220625093 4.141104721640332 30
      vertex -15.454813220625093 4.141104721640332 0
    endloop
  endfacet
  facet normal -0.9469301294951056 0.3214394653031618 -1.31868302601697e-18
    outer loop
      vertex -15.454813220625093 4.141104721640332 0
      vertex -14.782072520180588 6.1229349178414365 30
      vertex -14.782072520180588 6.1229349178414365 0
    endloop
  endfacet
  facet normal -0.8968727415326881 0.4422886902190015 3.1725239545533977e-19
    outer loop
      vertex -14.782072520180588 6.1229349178414365 0
      vertex -13.856406460551018 8 30
      vertex -13.856406460551018 8 0
    endloop
  endfacet
  facet normal 0 0 -1
    outer loop
      vertex -12.693653444659763 9.74018286413953 0
      vertex -11.313708498984761 11.313708498984761 0
      vertex -12.297560733739028 7.1 0
    endloop
  endfacet
  facet normal 0 0 -1
    outer loop
      vertex -11.313708498984761 11.313708498984761 0
      vertex -11.265617432135539 8.644412291923834 0
      vertex -12.297560733739028 7.1 0
    endloop
  endfacet
  facet normal 0 0 -1
    outer loop
      vertex -11.313708498984761 11.313708498984761 0
      vertex -10.040916292848975 10.040916292848975 0
      vertex -11.265617432135539 8.644412291923834 0
    endloop
  endfacet
  facet normal 0 0 -1
    outer loop
      vertex -11.313708498984761 11.313708498984761 0
      vertex -9.74018286413953 12.693653444659763 0
      vertex -10.040916292848975 10.040916292848975 0
    endloop
  endfacet
  facet normal 0 0 -1
    outer loop
      vertex -9.74018286413953 12.693653444659763 0
      vertex -8.644412291923834 11.265617432135539 0
      vertex -10.040916292848975 10.040916292848975 0
    endloop
  endfacet
  facet normal 0 0 -1
    outer loop
      vertex -9.74018286413953 12.693653444659763 0
      vertex -8 13.856406460551018 0
      vertex -8.644412291923834 11.265617432135539 0
    endloop
  endfacet
  facet normal -0.8314696123025453 0.5555702330196018 -3.0999534393470943e-18
    outer loop
      vertex -13.856406460551018 8 0
      vertex -12.693653444659763 9.74018286413953 30
      vertex -12.693653444659763 9.74018286413953 0
    endloop
  endfacet
  facet normal -0.7518398074789776 0.6593458151000686 -5.407951109295699e-19
    outer loop
      vertex -12.693653444659763 9.74018286413953 0
      vertex -11.313708498984761 11.313708498984761 30
      vertex -11.313708498984761 11.313708498984761 0
    endloop
  endfacet
  facet normal -0.6593458151000686 0.7518398074789776 0
    outer loop
      vertex -11.313708498984761 11.313708498984761 0
      vertex -11.313708498984761 11.313708498984761 30
      vertex -9.74018286413953 12.693653444659763 0
    endloop
  endfacet
  facet normal -0.5555702330196018 0.8314696123025453 0
    outer loop
      vertex -9.74018286413953 12.693653444659763 0
      vertex -9.74018286413953 12.693653444659763 30
      vertex -8 13.856406460551018 0
    endloop
  endfacet
  facet normal 0 0 -1
    outer loop
      vertex -8 13.856406460551018 0
      vertex -7.1 12.297560733739028 0
      vertex -8.644412291923834 11.265617432135539 0
    endloop
  endfacet
  facet normal 0 0 -1
    outer loop
      vertex -8 13.856406460551018 0
      vertex -6.1229349178414365 14.782072520180588 0
      vertex -7.1 12.297560733739028 0
    endloop
  endfacet
  facet normal 0 0 -1
    outer loop
      vertex -6.1229349178414365 14.782072520180588 0
      vertex -5.434104739584274 13.11908936166027 0
      vertex -7.1 12.297560733739028 0
    endloop
  endfacet
  facet normal 0 0 -1
    outer loop
      vertex -6.1229349178414365 14.782072520180588 0
      vertex -4.141104721640332 15.454813220625093 0
      vertex -5.434104739584274 13.11908936166027 0
    endloop
  endfacet
  facet normal 0 0 -1
    outer loop
      vertex -4.141104721640332 15.454813220625093 0
      vertex -3.6752304404557945 13.71614673330477 0
      vertex -5.434104739584274 13.11908936166027 0
    endloop
  endfacet
  facet normal 0 0 -1
    outer loop
      vertex -4.141104721640332 15.454813220625093 0
      vertex -2.088419075520825 15.863117781980966 0
      vertex -3.6752304404557945 13.71614673330477 0
    endloop
  endfacet
  facet normal 0 0 -1
    outer loop
      vertex -2.088419075520825 15.863117781980966 0
      vertex -1.8534719295247322 14.078517031508106 0
      vertex -3.6752304404557945 13.71614673330477 0
    endloop
  endfacet
  facet normal 0 0 -1
    outer loop
      vertex -2.088419075520825 15.863117781980966 0
      vertex 0 16 0
      vertex -1.8534719295247322 14.078517031508106 0
    endloop
  endfacet
  facet normal 0 0 -1
    outer loop
      vertex 0 16 0
      vertex 0 14.2 0
      vertex -1.8534719295247322 14.078517031508106 0
    endloop
  endfacet
  facet normal -0.4422886902190015 0.8968727415326881 0
    outer loop
      vertex -8 13.856406460551018 0
      vertex -8 13.856406460551018 30
      vertex -6.1229349178414365 14.782072520180588 0
    endloop
  endfacet
  facet normal -0.3214394653031618 0.9469301294951056 0
    outer loop
      vertex -6.1229349178414365 14.782072520180588 0
      vertex -6.1229349178414365 14.782072520180588 30
      vertex -4.141104721640332 15.454813220625093 0
    endloop
  endfacet
  facet normal -0.1950903220161279 0.9807852804032305 0
    outer loop
      vertex -4.141104721640332 15.454813220625093 0
      vertex -4.141104721640332 15.454813220625093 30
      vertex -2.088419075520825 15.863117781980966 0
    endloop
  endfacet
  facet normal -0.0654031292301433 0.9978589232386035 0
    outer loop
      vertex -2.088419075520825 15.863117781980966 0
      vertex -2.088419075520825 15.863117781980966 30
      vertex 0 16 0
    endloop
  endfacet
  facet normal -0.9978589232386035 0.0654031292301433 0
    outer loop
      vertex -16 0 0
      vertex -16 0 30
      vertex -15.863117781980966 2.088419075520825 30
    endloop
  endfacet
  facet normal -0.9807852804032305 0.1950903220161279 0
    outer loop
      vertex -15.863117781980966 2.088419075520825 0
      vertex -15.863117781980966 2.088419075520825 30
      vertex -15.454813220625093 4.141104721640332 30
    endloop
  endfacet
  facet normal -0.9469301294951056 0.3214394653031618 0
    outer loop
      vertex -15.454813220625093 4.141104721640332 0
      vertex -15.454813220625093 4.141104721640332 30
      vertex -14.782072520180588 6.1229349178414365 30
    endloop
  endfacet
  facet normal -0.8968727415326881 0.4422886902190015 0
    outer loop
      vertex -14.782072520180588 6.1229349178414365 0
      vertex -14.782072520180588 6.1229349178414365 30
      vertex -13.856406460551018 8 30
    endloop
  endfacet
  facet normal 0 0 1
    outer loop
      vertex -15.863117781980966 -2.088419075520825 30
      vertex -15.863117781980966 2.088419075520825 30
      vertex -16 0 30
    endloop
  endfacet
  facet normal 0 0 1
    outer loop
      vertex -15.454813220625093 -4.141104721640332 30
      vertex -15.454813220625093 4.141104721640332 30
      vertex -15.863117781980966 2.088419075520825 30
    endloop
  endfacet
  facet normal 0 0 1
    outer loop
      vertex -14.782072520180588 -6.1229349178414365 30
      vertex -14.782072520180588 6.1229349178414365 30
      vertex -15.454813220625093 4.141104721640332 30
    endloop
  endfacet
  facet normal 0 0 1
    outer loop
      vertex -14.782072520180588 6.1229349178414365 30
      vertex -14.2 0 30
      vertex -14.078517031508106 1.8534719295247322 30
    endloop
  endfacet
  facet normal 0 0 1
    outer loop
      vertex -14.782072520180588 6.1229349178414365 30
      vertex -14.078517031508106 1.8534719295247322 30
      vertex -13.71614673330477 3.6752304404557945 30
    endloop
  endfacet
  facet normal 0 0 1
    outer loop
      vertex -14.782072520180588 6.1229349178414365 30
      vertex -13.71614673330477 3.6752304404557945 30
      vertex -13.856406460551018 8 30
    endloop
  endfacet
  facet normal 0 0 1
    outer loop
      vertex -13.856406460551018 8 30
      vertex -13.71614673330477 3.6752304404557945 30
      vertex -13.11908936166027 5.434104739584274 30
    endloop
  endfacet
  facet normal 0 0 1
    outer loop
      vertex -13.856406460551018 8 30
      vertex -13.11908936166027 5.434104739584274 30
      vertex -12.297560733739028 7.1 30
    endloop
  endfacet
  facet normal -0.8314696123025453 0.5555702330196018 0
    outer loop
      vertex -13.856406460551018 8 0
      vertex -13.856406460551018 8 30
      vertex -12.693653444659763 9.74018286413953 30
    endloop
  endfacet
  facet normal -0.7518398074789776 0.6593458151000686 0
    outer loop
      vertex -12.693653444659763 9.74018286413953 0
      vertex -12.693653444659763 9.74018286413953 30
      vertex -11.313708498984761 11.313708498984761 30
    endloop
  endfacet
  facet normal -0.6593458151000686 0.7518398074789776 0
    outer loop
      vertex -9.74018286413953 12.693653444659763 0
      vertex -11.313708498984761 11.313708498984761 30
      vertex -9.74018286413953 12.693653444659763 30
    endloop
  endfacet
  facet normal -0.5555702330196018 0.8314696123025453 0
    outer loop
      vertex -8 13.856406460551018 0
      vertex -9.74018286413953 12.693653444659763 30
      vertex -8 13.856406460551018 30
    endloop
  endfacet
  facet normal 0 0 1
    outer loop
      vertex -13.856406460551018 8 30
      vertex -12.297560733739028 7.1 30
      vertex -12.693653444659763 9.74018286413953 30
    endloop
  endfacet
  facet normal 0 0 1
    outer loop
      vertex -12.693653444659763 9.74018286413953 30
      vertex -12.297560733739028 7.1 30
      vertex -11.265617432135539 8.644412291923834 30
    endloop
  endfacet
  facet normal 0 0 1
    outer loop
      vertex -12.693653444659763 9.74018286413953 30
      vertex -11.265617432135539 8.644412291923834 30
      vertex -11.313708498984761 11.313708498984761 30
    endloop
  endfacet
  facet normal 0 0 1
    outer loop
      vertex -11.313708498984761 11.313708498984761 30
      vertex -11.265617432135539 8.644412291923834 30
      vertex -10.040916292848975 10.040916292848975 30
    endloop
  endfacet
  facet normal 0 0 1
    outer loop
      vertex -11.313708498984761 11.313708498984761 30
      vertex -10.040916292848975 10.040916292848975 30
      vertex -8.644412291923834 11.265617432135539 30
    endloop
  endfacet
  facet normal 0 0 1
    outer loop
      vertex -11.313708498984761 11.313708498984761 30
      vertex -8.644412291923834 11.265617432135539 30
      vertex -9.74018286413953 12.693653444659763 30
    endloop
  endfacet
  facet normal 0 0 1
    outer loop
      vertex -9.74018286413953 12.693653444659763 30
      vertex -8.644412291923834 11.265617432135539 30
      vertex -7.1 12.297560733739028 30
    endloop
  endfacet
  facet normal 0 0 1
    outer loop
      vertex -9.74018286413953 12.693653444659763 30
      vertex -7.1 12.297560733739028 30
      vertex -8 13.856406460551018 30
    endloop
  endfacet
  facet normal -0.4422886902190015 0.8968727415326881 0
    outer loop
      vertex -6.1229349178414365 14.782072520180588 0
      vertex -8 13.856406460551018 30
      vertex -6.1229349178414365 14.782072520180588 30
    endloop
  endfacet
  facet normal -0.3214394653031618 0.9469301294951056 0
    outer loop
      vertex -4.141104721640332 15.454813220625093 0
      vertex -6.1229349178414365 14.782072520180588 30
      vertex -4.141104721640332 15.454813220625093 30
    endloop
  endfacet
  facet normal -0.1950903220161279 0.9807852804032305 0
    outer loop
      vertex -2.088419075520825 15.863117781980966 0
      vertex -4.141104721640332 15.454813220625093 30
      vertex -2.088419075520825 15.863117781980966 30
    endloop
  endfacet
  facet normal -0.0654031292301433 0.9978589232386035 -2.7723669605844475e-19
    outer loop
      vertex -2.088419075520825 15.863117781980966 30
      vertex 0 16 30
      vertex 0 16 0
    endloop
  endfacet
  facet normal 0 0 1
    outer loop
      vertex -8 13.856406460551018 30
      vertex -7.1 12.297560733739028 30
      vertex -5.434104739584274 13.11908936166027 30
    endloop
  endfacet
  facet normal 0 0 1
    outer loop
      vertex -8 13.856406460551018 30
      vertex -5.434104739584274 13.11908936166027 30
      vertex -6.1229349178414365 14.782072520180588 30
    endloop
  endfacet
  facet normal 0 0 1
    outer loop
      vertex -6.1229349178414365 14.782072520180588 30
      vertex -5.434104739584274 13.11908936166027 30
      vertex -3.6752304404557945 13.71614673330477 30
    endloop
  endfacet
  facet normal 0 0 1
    outer loop
      vertex -6.1229349178414365 14.782072520180588 30
      vertex -3.6752304404557945 13.71614673330477 30
      vertex -4.141104721640332 15.454813220625093 30
    endloop
  endfacet
  facet normal 0 0 1
    outer loop
      vertex -4.141104721640332 15.454813220625093 30
      vertex -3.6752304404557945 13.71614673330477 30
      vertex -1.8534719295247322 14.078517031508106 30
    endloop
  endfacet
  facet normal 0 0 1
    outer loop
      vertex -4.141104721640332 15.454813220625093 30
      vertex -1.8534719295247322 14.078517031508106 30
      vertex -2.088419075520825 15.863117781980966 30
    endloop
  endfacet
  facet normal 0 0 1
    outer loop
      vertex -2.088419075520825 15.863117781980966 30
      vertex -1.8534719295247322 14.078517031508106 30
      vertex 0 14.2 30
    endloop
  endfacet
  facet normal 0 0 1
    outer loop
      vertex -2.088419075520825 15.863117781980966 30
      vertex 0 14.2 30
      vertex 0 16 30
    endloop
  endfacet
  facet normal 0 0 -1
    outer loop
      vertex 0 -16 0
      vertex 0 -14.2 0
      vertex 1.8534719295247322 -14.078517031508106 0
    endloop
  endfacet
  facet normal 0 0 -1
    outer loop
      vertex 0 -16 0
      vertex 1.8534719295247322 -14.078517031508106 0
      vertex 2.088419075520825 -15.863117781980966 0
    endloop
  endfacet
  facet normal 0 0 -1
    outer loop
      vertex 2.088419075520825 -15.863117781980966 0
      vertex 1.8534719295247322 -14.078517031508106 0
      vertex 3.6752304404557945 -13.71614673330477 0
    endloop
  endfacet
  facet normal 0 0 -1
    outer loop
      vertex 2.088419075520825 -15.863117781980966 0
      vertex 3.6752304404557945 -13.71614673330477 0
      vertex 4.141104721640332 -15.454813220625093 0
    endloop
  endfacet
  facet normal 0 0 -1
    outer loop
      vertex 4.141104721640332 -15.454813220625093 0
      vertex 3.6752304404557945 -13.71614673330477 0
      vertex 5.434104739584274 -13.11908936166027 0
    endloop
  endfacet
  facet normal 0 0 -1
    outer loop
      vertex 4.141104721640332 -15.454813220625093 0
      vertex 5.434104739584274 -13.11908936166027 0
      vertex 6.1229349178414365 -14.782072520180588 0
    endloop
  endfacet
  facet normal 0 0 -1
    outer loop
      vertex 6.1229349178414365 -14.782072520180588 0
      vertex 5.434104739584274 -13.11908936166027 0
      vertex 7.1 -12.297560733739028 0
    endloop
  endfacet
  facet normal 0 0 -1
    outer loop
      vertex 6.1229349178414365 -14.782072520180588 0
      vertex 7.1 -12.297560733739028 0
      vertex 8 -13.856406460551018 0
    endloop
  endfacet
  facet normal 0 0 -1
    outer loop
      vertex 8 -13.856406460551018 0
      vertex 7.1 -12.297560733739028 0
      vertex 8.644412291923834 -11.265617432135539 0
    endloop
  endfacet
  facet normal 0.0654031292301433 -0.9978589232386035 -2.7723669605844475e-19
    outer loop
      vertex 0 -16 0
      vertex 2.088419075520825 -15.863117781980966 0
      vertex 2.088419075520825 -15.863117781980966 30
    endloop
  endfacet
  facet normal 0.1950903220161279 -0.9807852804032305 1.194965111243929e-19
    outer loop
      vertex 2.088419075520825 -15.863117781980966 0
      vertex 4.141104721640332 -15.454813220625093 0
      vertex 4.141104721640332 -15.454813220625093 30
    endloop
  endfacet
  facet normal 0.3214394653031618 -0.9469301294951056 -1.31868302601697e-18
    outer loop
      vertex 4.141104721640332 -15.454813220625093 0
      vertex 6.1229349178414365 -14.782072520180588 0
      vertex 6.1229349178414365 -14.782072520180588 30
    endloop
  endfacet
  facet normal 0.4422886902190015 -0.8968727415326881 3.1725239545533977e-19
    outer loop
      vertex 6.1229349178414365 -14.782072520180588 0
      vertex 8 -13.856406460551018 0
      vertex 8 -13.856406460551018 30
    endloop
  endfacet
  facet normal 0 0 -1
    outer loop
      vertex 8 -13.856406460551018 0
      vertex 8.644412291923834 -11.265617432135539 0
      vertex 9.74018286413953 -12.693653444659763 0
    endloop
  endfacet
  facet normal 0 0 -1
    outer loop
      vertex 9.74018286413953 -12.693653444659763 0
      vertex 8.644412291923834 -11.265617432135539 0
      vertex 10.040916292848975 -10.040916292848975 0
    endloop
  endfacet
  facet normal 0 0 -1
    outer loop
      vertex 9.74018286413953 -12.693653444659763 0
      vertex 10.040916292848975 -10.040916292848975 0
      vertex 11.313708498984761 -11.313708498984761 0
    endloop
  endfacet
  facet normal 0 0 -1
    outer loop
      vertex 11.313708498984761 -11.313708498984761 0
      vertex 10.040916292848975 -10.040916292848975 0
      vertex 11.265617432135539 -8.644412291923834 0
    endloop
  endfacet
  facet normal 0 0 -1
    outer loop
      vertex 11.313708498984761 -11.313708498984761 0
      vertex 11.265617432135539 -8.644412291923834 0
      vertex 12.297560733739028 -7.1 0
    endloop
  endfacet
  facet normal 0 0 -1
    outer loop
      vertex 11.313708498984761 -11.313708498984761 0
      vertex 12.297560733739028 -7.1 0
      vertex 12.693653444659763 -9.74018286413953 0
    endloop
  endfacet
  facet normal 0.5555702330196018 -0.8314696123025453 -3.0999534393470943e-18
    outer loop
      vertex 8 -13.856406460551018 0
      vertex 9.74018286413953 -12.693653444659763 0
      vertex 9.74018286413953 -12.693653444659763 30
    endloop
  endfacet
  facet normal 0.6593458151000686 -0.7518398074789776 -5.407951109295699e-19
    outer loop
      vertex 9.74018286413953 -12.693653444659763 0
      vertex 11.313708498984761 -11.313708498984761 0
      vertex 11.313708498984761 -11.313708498984761 30
    endloop
  endfacet
  facet normal 0.7518398074789776 -0.6593458151000686 0
    outer loop
      vertex 11.313708498984761 -11.313708498984761 0
      vertex 12.693653444659763 -9.74018286413953 0
      vertex 11.313708498984761 -11.313708498984761 30
    endloop
  endfacet
  facet normal 0.8314696123025453 -0.5555702330196018 0
    outer loop
      vertex 12.693653444659763 -9.74018286413953 0
      vertex 13.856406460551018 -8 0
      vertex 12.693653444659763 -9.74018286413953 30
    endloop
  endfacet
  facet normal 0 0 -1
    outer loop
      vertex 12.693653444659763 -9.74018286413953 0
      vertex 12.297560733739028 -7.1 0
      vertex 13.11908936166027 -5.434104739584274 0
    endloop
  endfacet
  facet normal 0 0 -1
    outer loop
      vertex 12.693653444659763 -9.74018286413953 0
      vertex 13.11908936166027 -5.434104739584274 0
      vertex 13.856406460551018 -8 0
    endloop
  endfacet
  facet normal 0 0 -1
    outer loop
      vertex 13.856406460551018 -8 0
      vertex 13.11908936166027 -5.434104739584274 0
      vertex 13.71614673330477 -3.6752304404557945 0
    endloop
  endfacet
  facet normal 0 0 -1
    outer loop
      vertex 13.856406460551018 -8 0
      vertex 13.71614673330477 -3.6752304404557945 0
      vertex 14.078517031508106 -1.8534719295247322 0
    endloop
  endfacet
  facet normal 0 0 -1
    outer loop
      vertex 13.856406460551018 -8 0
      vertex 14.078517031508106 -1.8534719295247322 0
      vertex 14.2 0 0
    endloop
  endfacet
  facet normal 0 0 -1
    outer loop
      vertex 13.856406460551018 -8 0
      vertex 14.782072520180588 6.1229349178414365 0
      vertex 14.782072520180588 -6.1229349178414365 0
    endloop
  endfacet
  facet normal 0 0 -1
    outer loop
      vertex 14.782072520180588 -6.1229349178414365 0
      vertex 15.454813220625093 4.141104721640332 0
      vertex 15.454813220625093 -4.141104721640332 0
    endloop
  endfacet
  facet normal 0 0 -1
    outer loop
      vertex 13.856406460551018 -8 0
      vertex 14.2 0 0
      vertex 14.782072520180588 6.1229349178414365 0
    endloop
  endfacet
  facet normal 0 0 -1
    outer loop
      vertex 15.454813220625093 -4.141104721640332 0
      vertex 15.863117781980966 2.088419075520825 0
      vertex 15.863117781980966 -2.088419075520825 0
    endloop
  endfacet
  facet normal 0.8968727415326881 -0.4422886902190015 0
    outer loop
      vertex 13.856406460551018 -8 0
      vertex 14.782072520180588 -6.1229349178414365 0
      vertex 13.856406460551018 -8 30
    endloop
  endfacet
  facet normal 0.9469301294951056 -0.3214394653031618 0
    outer loop
      vertex 14.782072520180588 -6.1229349178414365 0
      vertex 15.454813220625093 -4.141104721640332 0
      vertex 14.782072520180588 -6.1229349178414365 30
    endloop
  endfacet
  facet normal 0.9807852804032305 -0.1950903220161279 0
    outer loop
      vertex 15.454813220625093 -4.141104721640332 0
      vertex 15.863117781980966 -2.088419075520825 0
      vertex 15.454813220625093 -4.141104721640332 30
    endloop
  endfacet
  facet normal 0.9978589232386035 -0.0654031292301433 0
    outer loop
      vertex 15.863117781980966 -2.088419075520825 0
      vertex 16 0 0
      vertex 15.863117781980966 -2.088419075520825 30
    endloop
  endfacet
  facet normal 0.0654031292301433 -0.9978589232386035 0
    outer loop
      vertex 0 -16 0
      vertex 2.088419075520825 -15.863117781980966 30
      vertex 0 -16 30
    endloop
  endfacet
  facet normal 0.1950903220161279 -0.9807852804032305 0
    outer loop
      vertex 2.088419075520825 -15.863117781980966 0
      vertex 4.141104721640332 -15.454813220625093 30
      vertex 2.088419075520825 -15.863117781980966 30
    endloop
  endfacet
  facet normal 0.3214394653031618 -0.9469301294951056 0
    outer loop
      vertex 4.141104721640332 -15.454813220625093 0
      vertex 6.1229349178414365 -14.782072520180588 30
      vertex 4.141104721640332 -15.454813220625093 30
    endloop
  endfacet
  facet normal 0.4422886902190015 -0.8968727415326881 0
    outer loop
      vertex 6.1229349178414365 -14.782072520180588 0
      vertex 8 -13.856406460551018 30
      vertex 6.1229349178414365 -14.782072520180588 30
    endloop
  endfacet
  facet normal 0 0 1
    outer loop
      vertex 0 -16 30
      vertex 2.088419075520825 -15.863117781980966 30
      vertex 0 -14.2 30
    endloop
  endfacet
  facet normal 0 0 1
    outer loop
      vertex 2.088419075520825 -15.863117781980966 30
      vertex 1.8534719295247322 -14.078517031508106 30
      vertex 0 -14.2 30
    endloop
  endfacet
  facet normal 0 0 1
    outer loop
      vertex 2.088419075520825 -15.863117781980966 30
      vertex 4.141104721640332 -15.454813220625093 30
      vertex 1.8534719295247322 -14.078517031508106 30
    endloop
  endfacet
  facet normal 0 0 1
    outer loop
      vertex 4.141104721640332 -15.454813220625093 30
      vertex 3.6752304404557945 -13.71614673330477 30
      vertex 1.8534719295247322 -14.078517031508106 30
    endloop
  endfacet
  facet normal 0 0 1
    outer loop
      vertex 4.141104721640332 -15.454813220625093 30
      vertex 6.1229349178414365 -14.782072520180588 30
      vertex 3.6752304404557945 -13.71614673330477 30
    endloop
  endfacet
  facet normal 0 0 1
    outer loop
      vertex 6.1229349178414365 -14.782072520180588 30
      vertex 5.434104739584274 -13.11908936166027 30
      vertex 3.6752304404557945 -13.71614673330477 30
    endloop
  endfacet
  facet normal 0 0 1
    outer loop
      vertex 6.1229349178414365 -14.782072520180588 30
      vertex 8 -13.856406460551018 30
      vertex 5.434104739584274 -13.11908936166027 30
    endloop
  endfacet
  facet normal 0 0 1
    outer loop
      vertex 8 -13.856406460551018 30
      vertex 7.1 -12.297560733739028 30
      vertex 5.434104739584274 -13.11908936166027 30
    endloop
  endfacet
  facet normal 0.5555702330196018 -0.8314696123025453 0
    outer loop
      vertex 8 -13.856406460551018 0
      vertex 9.74018286413953 -12.693653444659763 30
      vertex 8 -13.856406460551018 30
    endloop
  endfacet
  facet normal 0.6593458151000686 -0.7518398074789776 0
    outer loop
      vertex 9.74018286413953 -12.693653444659763 0
      vertex 11.313708498984761 -11.313708498984761 30
      vertex 9.74018286413953 -12.693653444659763 30
    endloop
  endfacet
  facet normal 0.7518398074789776 -0.6593458151000686 0
    outer loop
      vertex 12.693653444659763 -9.74018286413953 0
      vertex 12.693653444659763 -9.74018286413953 30
      vertex 11.313708498984761 -11.313708498984761 30
    endloop
  endfacet
  facet normal 0.8314696123025453 -0.5555702330196018 0
    outer loop
      vertex 13.856406460551018 -8 0
      vertex 13.856406460551018 -8 30
      vertex 12.693653444659763 -9.74018286413953 30
    endloop
  endfacet
  facet normal 0 0 1
    outer loop
      vertex 8 -13.856406460551018 30
      vertex 9.74018286413953 -12.693653444659763 30
      vertex 7.1 -12.297560733739028 30
    endloop
  endfacet
  facet normal 0 0 1
    outer loop
      vertex 9.74018286413953 -12.693653444659763 30
      vertex 8.644412291923834 -11.265617432135539 30
      vertex 7.1 -12.297560733739028 30
    endloop
  endfacet
  facet normal 0 0 1
    outer loop
      vertex 9.74018286413953 -12.693653444659763 30
      vertex 11.313708498984761 -11.313708498984761 30
      vertex 8.644412291923834 -11.265617432135539 30
    endloop
  endfacet
  facet normal 0 0 1
    outer loop
      vertex 11.313708498984761 -11.313708498984761 30
      vertex 10.040916292848975 -10.040916292848975 30
      vertex 8.644412291923834 -11.265617432135539 30
    endloop
  endfacet
  facet normal 0 0 1
    outer loop
      vertex 11.313708498984761 -11.313708498984761 30
      vertex 11.265617432135539 -8.644412291923834 30
      vertex 10.040916292848975 -10.040916292848975 30
    endloop
  endfacet
  facet normal 0 0 1
    outer loop
      vertex 11.313708498984761 -11.313708498984761 30
      vertex 12.693653444659763 -9.74018286413953 30
      vertex 11.265617432135539 -8.644412291923834 30
    endloop
  endfacet
  facet normal 0 0 1
    outer loop
      vertex 12.693653444659763 -9.74018286413953 30
      vertex 12.297560733739028 -7.1 30
      vertex 11.265617432135539 -8.644412291923834 30
    endloop
  endfacet
  facet normal 0 0 1
    outer loop
      vertex 12.693653444659763 -9.74018286413953 30
      vertex 13.856406460551018 -8 30
      vertex 12.297560733739028 -7.1 30
    endloop
  endfacet
  facet normal 0.8968727415326881 -0.4422886902190015 0
    outer loop
      vertex 14.782072520180588 -6.1229349178414365 0
      vertex 14.782072520180588 -6.1229349178414365 30
      vertex 13.856406460551018 -8 30
    endloop
  endfacet
  facet normal 0.9469301294951056 -0.3214394653031618 0
    outer loop
      vertex 15.454813220625093 -4.141104721640332 0
      vertex 15.454813220625093 -4.141104721640332 30
      vertex 14.782072520180588 -6.1229349178414365 30
    endloop
  endfacet
  facet normal 0.9807852804032305 -0.1950903220161279 0
    outer loop
      vertex 15.863117781980966 -2.088419075520825 0
      vertex 15.863117781980966 -2.088419075520825 30
      vertex 15.454813220625093 -4.141104721640332 30
    endloop
  endfacet
  facet normal 0.9978589232386035 -0.0654031292301433 -2.7723669605844475e-19
    outer loop
      vertex 15.863117781980966 -2.088419075520825 30
      vertex 16 0 0
      vertex 16 0 30
    endloop
  endfacet
  facet normal 0 0 1
    outer loop
      vertex 13.856406460551018 -8 30
      vertex 13.11908936166027 -5.434104739584274 30
      vertex 12.297560733739028 -7.1 30
    endloop
  endfacet
  facet normal 0 0 1
    outer loop
      vertex 13.856406460551018 -8 30
      vertex 13.71614673330477 -3.6752304404557945 30
      vertex 13.11908936166027 -5.434104739584274 30
    endloop
  endfacet
  facet normal 0 0 1
    outer loop
      vertex 13.856406460551018 -8 30
      vertex 14.782072520180588 -6.1229349178414365 30
      vertex 13.71614673330477 -3.6752304404557945 30
    endloop
  endfacet
  facet normal 0 0 1
    outer loop
      vertex 14.782072520180588 -6.1229349178414365 30
      vertex 14.078517031508106 -1.8534719295247322 30
      vertex 13.71614673330477 -3.6752304404557945 30
    endloop
  endfacet
  facet normal 0 0 1
    outer loop
      vertex 14.782072520180588 -6.1229349178414365 30
      vertex 14.2 0 30
      vertex 14.078517031508106 -1.8534719295247322 30
    endloop
  endfacet
  facet normal 0 0 1
    outer loop
      vertex 14.782072520180588 -6.1229349178414365 30
      vertex 15.454813220625093 -4.141104721640332 30
      vertex 14.782072520180588 6.1229349178414365 30
    endloop
  endfacet
  facet normal 0 0 1
    outer loop
      vertex 15.454813220625093 -4.141104721640332 30
      vertex 15.863117781980966 -2.088419075520825 30
      vertex 15.454813220625093 4.141104721640332 30
    endloop
  endfacet
  facet normal 0 0 -1
    outer loop
      vertex 0 16 0
      vertex 2.088419075520825 15.863117781980966 0
      vertex 0 14.2 0
    endloop
  endfacet
  facet normal 0 0 -1
    outer loop
      vertex 2.088419075520825 15.863117781980966 0
      vertex 1.8534719295247322 14.078517031508106 0
      vertex 0 14.2 0
    endloop
  endfacet
  facet normal 0 0 -1
    outer loop
      vertex 2.088419075520825 15.863117781980966 0
      vertex 4.141104721640332 15.454813220625093 0
      vertex 1.8534719295247322 14.078517031508106 0
    endloop
  endfacet
  facet normal 0 0 -1
    outer loop
      vertex 4.141104721640332 15.454813220625093 0
      vertex 3.6752304404557945 13.71614673330477 0
      vertex 1.8534719295247322 14.078517031508106 0
    endloop
  endfacet
  facet normal 0 0 -1
    outer loop
      vertex 6.1229349178414365 14.782072520180588 0
      vertex 5.434104739584274 13.11908936166027 0
      vertex 3.6752304404557945 13.71614673330477 0
    endloop
  endfacet
  facet normal 0 0 -1
    outer loop
      vertex 4.141104721640332 15.454813220625093 0
      vertex 6.1229349178414365 14.782072520180588 0
      vertex 3.6752304404557945 13.71614673330477 0
    endloop
  endfacet
  facet normal 0 0 -1
    outer loop
      vertex 8 13.856406460551018 0
      vertex 7.1 12.297560733739028 0
      vertex 5.434104739584274 13.11908936166027 0
    endloop
  endfacet
  facet normal 0 0 -1
    outer loop
      vertex 6.1229349178414365 14.782072520180588 0
      vertex 8 13.856406460551018 0
      vertex 5.434104739584274 13.11908936166027 0
    endloop
  endfacet
  facet normal 0.0654031292301433 0.9978589232386035 0
    outer loop
      vertex 0 16 0
      vertex 0 16 30
      vertex 2.088419075520825 15.863117781980966 0
    endloop
  endfacet
  facet normal 0.1950903220161279 0.9807852804032305 0
    outer loop
      vertex 2.088419075520825 15.863117781980966 0
      vertex 2.088419075520825 15.863117781980966 30
      vertex 4.141104721640332 15.454813220625093 0
    endloop
  endfacet
  facet normal 0.3214394653031618 0.9469301294951056 0
    outer loop
      vertex 4.141104721640332 15.454813220625093 0
      vertex 4.141104721640332 15.454813220625093 30
      vertex 6.1229349178414365 14.782072520180588 0
    endloop
  endfacet
  facet normal 0.4422886902190015 0.8968727415326881 0
    outer loop
      vertex 6.1229349178414365 14.782072520180588 0
      vertex 6.1229349178414365 14.782072520180588 30
      vertex 8 13.856406460551018 0
    endloop
  endfacet
  facet normal 0 0 -1
    outer loop
      vertex 15.863117781980966 -2.088419075520825 0
      vertex 15.863117781980966 2.088419075520825 0
      vertex 16 0 0
    endloop
  endfacet
  facet normal 0 0 -1
    outer loop
      vertex 15.454813220625093 -4.141104721640332 0
      vertex 15.454813220625093 4.141104721640332 0
      vertex 15.863117781980966 2.088419075520825 0
    endloop
  endfacet
  facet normal 0 0 -1
    outer loop
      vertex 14.782072520180588 -6.1229349178414365 0
      vertex 14.782072520180588 6.1229349178414365 0
      vertex 15.454813220625093 4.141104721640332 0
    endloop
  endfacet
  facet normal 0 0 -1
    outer loop
      vertex 14.782072520180588 6.1229349178414365 0
      vertex 14.2 0 0
      vertex 14.078517031508106 1.8534719295247322 0
    endloop
  endfacet
  facet normal 0 0 -1
    outer loop
      vertex 14.782072520180588 6.1229349178414365 0
      vertex 14.078517031508106 1.8534719295247322 0
      vertex 13.71614673330477 3.6752304404557945 0
    endloop
  endfacet
  facet normal 0 0 -1
    outer loop
      vertex 13.856406460551018 8 0
      vertex 13.71614673330477 3.6752304404557945 0
      vertex 13.11908936166027 5.434104739584274 0
    endloop
  endfacet
  facet normal 0 0 -1
    outer loop
      vertex 13.856406460551018 8 0
      vertex 13.11908936166027 5.434104739584274 0
      vertex 12.297560733739028 7.1 0
    endloop
  endfacet
  facet normal 0 0 -1
    outer loop
      vertex 14.782072520180588 6.1229349178414365 0
      vertex 13.71614673330477 3.6752304404557945 0
      vertex 13.856406460551018 8 0
    endloop
  endfacet
  facet normal 0.9978589232386035 0.0654031292301433 0
    outer loop
      vertex 16 0 0
      vertex 15.863117781980966 2.088419075520825 0
      vertex 16 0 30
    endloop
  endfacet
  facet normal 0.9807852804032305 0.1950903220161279 0
    outer loop
      vertex 15.863117781980966 2.088419075520825 0
      vertex 15.454813220625093 4.141104721640332 0
      vertex 15.863117781980966 2.088419075520825 30
    endloop
  endfacet
  facet normal 0.9469301294951056 0.3214394653031618 0
    outer loop
      vertex 15.454813220625093 4.141104721640332 0
      vertex 14.782072520180588 6.1229349178414365 0
      vertex 15.454813220625093 4.141104721640332 30
    endloop
  endfacet
  facet normal 0.8968727415326881 0.4422886902190015 0
    outer loop
      vertex 14.782072520180588 6.1229349178414365 0
      vertex 13.856406460551018 8 0
      vertex 14.782072520180588 6.1229349178414365 30
    endloop
  endfacet
  facet normal 0 0 -1
    outer loop
      vertex 11.313708498984761 11.313708498984761 0
      vertex 10.040916292848975 10.040916292848975 0
      vertex 8.644412291923834 11.265617432135539 0
    endloop
  endfacet
  facet normal 0 0 -1
    outer loop
      vertex 11.313708498984761 11.313708498984761 0
      vertex 8.644412291923834 11.265617432135539 0
      vertex 9.74018286413953 12.693653444659763 0
    endloop
  endfacet
  facet normal 0 0 -1
    outer loop
      vertex 11.313708498984761 11.313708498984761 0
      vertex 11.265617432135539 8.644412291923834 0
      vertex 10.040916292848975 10.040916292848975 0
    endloop
  endfacet
  facet normal 0 0 -1
    outer loop
      vertex 11.313708498984761 11.313708498984761 0
      vertex 12.693653444659763 9.74018286413953 0
      vertex 11.265617432135539 8.644412291923834 0
    endloop
  endfacet
  facet normal 0 0 -1
    outer loop
      vertex 9.74018286413953 12.693653444659763 0
      vertex 8.644412291923834 11.265617432135539 0
      vertex 7.1 12.297560733739028 0
    endloop
  endfacet
  facet normal 0 0 -1
    outer loop
      vertex 8 13.856406460551018 0
      vertex 9.74018286413953 12.693653444659763 0
      vertex 7.1 12.297560733739028 0
    endloop
  endfacet
  facet normal 0 0 -1
    outer loop
      vertex 12.693653444659763 9.74018286413953 0
      vertex 12.297560733739028 7.1 0
      vertex 11.265617432135539 8.644412291923834 0
    endloop
  endfacet
  facet normal 0 0 -1
    outer loop
      vertex 12.693653444659763 9.74018286413953 0
      vertex 13.856406460551018 8 0
      vertex 12.297560733739028 7.1 0
    endloop
  endfacet
  facet normal 0.5555702330196018 0.8314696123025453 0
    outer loop
      vertex 8 13.856406460551018 0
      vertex 8 13.856406460551018 30
      vertex 9.74018286413953 12.693653444659763 0
    endloop
  endfacet
  facet normal 0.6593458151000686 0.7518398074789776 5.407951109295699e-19
    outer loop
      vertex 11.313708498984761 11.313708498984761 0
      vertex 9.74018286413953 12.693653444659763 0
      vertex 9.74018286413953 12.693653444659763 30
    endloop
  endfacet
  facet normal 0.8314696123025453 0.5555702330196018 3.0999534393470943e-18
    outer loop
      vertex 12.693653444659763 9.74018286413953 0
      vertex 13.856406460551018 8 30
      vertex 13.856406460551018 8 0
    endloop
  endfacet
  facet normal 0.7518398074789776 0.6593458151000686 5.407951109295699e-19
    outer loop
      vertex 11.313708498984761 11.313708498984761 0
      vertex 12.693653444659763 9.74018286413953 30
      vertex 12.693653444659763 9.74018286413953 0
    endloop
  endfacet
  facet normal 0.0654031292301433 0.9978589232386035 0
    outer loop
      vertex 2.088419075520825 15.863117781980966 0
      vertex 0 16 30
      vertex 2.088419075520825 15.863117781980966 30
    endloop
  endfacet
  facet normal 0.1950903220161279 0.9807852804032305 0
    outer loop
      vertex 4.141104721640332 15.454813220625093 0
      vertex 2.088419075520825 15.863117781980966 30
      vertex 4.141104721640332 15.454813220625093 30
    endloop
  endfacet
  facet normal 0.3214394653031618 0.9469301294951056 0
    outer loop
      vertex 6.1229349178414365 14.782072520180588 0
      vertex 4.141104721640332 15.454813220625093 30
      vertex 6.1229349178414365 14.782072520180588 30
    endloop
  endfacet
  facet normal 0.4422886902190015 0.8968727415326881 0
    outer loop
      vertex 8 13.856406460551018 0
      vertex 6.1229349178414365 14.782072520180588 30
      vertex 8 13.856406460551018 30
    endloop
  endfacet
  facet normal 0 0 1
    outer loop
      vertex 0 16 30
      vertex 0 14.2 30
      vertex 1.8534719295247322 14.078517031508106 30
    endloop
  endfacet
  facet normal 0 0 1
    outer loop
      vertex 0 16 30
      vertex 1.8534719295247322 14.078517031508106 30
      vertex 2.088419075520825 15.863117781980966 30
    endloop
  endfacet
  facet normal 0 0 1
    outer loop
      vertex 2.088419075520825 15.863117781980966 30
      vertex 1.8534719295247322 14.078517031508106 30
      vertex 3.6752304404557945 13.71614673330477 30
    endloop
  endfacet
  facet normal 0 0 1
    outer loop
      vertex 2.088419075520825 15.863117781980966 30
      vertex 3.6752304404557945 13.71614673330477 30
      vertex 4.141104721640332 15.454813220625093 30
    endloop
  endfacet
  facet normal 0 0 1
    outer loop
      vertex 4.141104721640332 15.454813220625093 30
      vertex 3.6752304404557945 13.71614673330477 30
      vertex 5.434104739584274 13.11908936166027 30
    endloop
  endfacet
  facet normal 0 0 1
    outer loop
      vertex 4.141104721640332 15.454813220625093 30
      vertex 5.434104739584274 13.11908936166027 30
      vertex 6.1229349178414365 14.782072520180588 30
    endloop
  endfacet
  facet normal 0 0 1
    outer loop
      vertex 6.1229349178414365 14.782072520180588 30
      vertex 5.434104739584274 13.11908936166027 30
      vertex 7.1 12.297560733739028 30
    endloop
  endfacet
  facet normal 0 0 1
    outer loop
      vertex 8 13.856406460551018 30
      vertex 7.1 12.297560733739028 30
      vertex 8.644412291923834 11.265617432135539 30
    endloop
  endfacet
  facet normal 0 0 1
    outer loop
      vertex 6.1229349178414365 14.782072520180588 30
      vertex 7.1 12.297560733739028 30
      vertex 8 13.856406460551018 30
    endloop
  endfacet
  facet normal 0.9978589232386035 0.0654031292301433 0
    outer loop
      vertex 15.863117781980966 2.088419075520825 0
      vertex 15.863117781980966 2.088419075520825 30
      vertex 16 0 30
    endloop
  endfacet
  facet normal 0.9807852804032305 0.1950903220161279 0
    outer loop
      vertex 15.454813220625093 4.141104721640332 0
      vertex 15.454813220625093 4.141104721640332 30
      vertex 15.863117781980966 2.088419075520825 30
    endloop
  endfacet
  facet normal 0.9469301294951056 0.3214394653031618 0
    outer loop
      vertex 14.782072520180588 6.1229349178414365 0
      vertex 14.782072520180588 6.1229349178414365 30
      vertex 15.454813220625093 4.141104721640332 30
    endloop
  endfacet
  facet normal 0.8968727415326881 0.4422886902190015 0
    outer loop
      vertex 13.856406460551018 8 0
      vertex 13.856406460551018 8 30
      vertex 14.782072520180588 6.1229349178414365 30
    endloop
  endfacet
  facet normal 0 0 1
    outer loop
      vertex 14.782072520180588 -6.1229349178414365 30
      vertex 13.856406460551018 8 30
      vertex 14.2 0 30
    endloop
  endfacet
  facet normal 0 0 1
    outer loop
      vertex 15.863117781980966 -2.088419075520825 30
      vertex 16 0 30
      vertex 15.863117781980966 2.088419075520825 30
    endloop
  endfacet
  facet normal 0 0 1
    outer loop
      vertex 15.863117781980966 -2.088419075520825 30
      vertex 15.863117781980966 2.088419075520825 30
      vertex 15.454813220625093 4.141104721640332 30
    endloop
  endfacet
  facet normal 0 0 1
    outer loop
      vertex 14.782072520180588 -6.1229349178414365 30
      vertex 14.782072520180588 6.1229349178414365 30
      vertex 13.856406460551018 8 30
    endloop
  endfacet
  facet normal 0 0 1
    outer loop
      vertex 13.856406460551018 8 30
      vertex 14.078517031508106 1.8534719295247322 30
      vertex 14.2 0 30
    endloop
  endfacet
  facet normal 0 0 1
    outer loop
      vertex 15.454813220625093 -4.141104721640332 30
      vertex 15.454813220625093 4.141104721640332 30
      vertex 14.782072520180588 6.1229349178414365 30
    endloop
  endfacet
  facet normal 0 0 1
    outer loop
      vertex 13.856406460551018 8 30
      vertex 13.71614673330477 3.6752304404557945 30
      vertex 14.078517031508106 1.8534719295247322 30
    endloop
  endfacet
  facet normal 0 0 1
    outer loop
      vertex 13.856406460551018 8 30
      vertex 13.11908936166027 5.434104739584274 30
      vertex 13.71614673330477 3.6752304404557945 30
    endloop
  endfacet
  facet normal 0 0 1
    outer loop
      vertex 12.693653444659763 9.74018286413953 30
      vertex 12.297560733739028 7.1 30
      vertex 13.11908936166027 5.434104739584274 30
    endloop
  endfacet
  facet normal 0 0 1
    outer loop
      vertex 12.693653444659763 9.74018286413953 30
      vertex 13.11908936166027 5.434104739584274 30
      vertex 13.856406460551018 8 30
    endloop
  endfacet
  facet normal 0.6593458151000686 0.7518398074789776 0
    outer loop
      vertex 11.313708498984761 11.313708498984761 0
      vertex 9.74018286413953 12.693653444659763 30
      vertex 11.313708498984761 11.313708498984761 30
    endloop
  endfacet
  facet normal 0.7518398074789776 0.6593458151000686 0
    outer loop
      vertex 11.313708498984761 11.313708498984761 0
      vertex 11.313708498984761 11.313708498984761 30
      vertex 12.693653444659763 9.74018286413953 30
    endloop
  endfacet
  facet normal 0.5555702330196018 0.8314696123025453 0
    outer loop
      vertex 9.74018286413953 12.693653444659763 0
      vertex 8 13.856406460551018 30
      vertex 9.74018286413953 12.693653444659763 30
    endloop
  endfacet
  facet normal 0.8314696123025453 0.5555702330196018 0
    outer loop
      vertex 12.693653444659763 9.74018286413953 0
      vertex 12.693653444659763 9.74018286413953 30
      vertex 13.856406460551018 8 30
    endloop
  endfacet
  facet normal 0 0 1
    outer loop
      vertex 9.74018286413953 12.693653444659763 30
      vertex 8.644412291923834 11.265617432135539 30
      vertex 10.040916292848975 10.040916292848975 30
    endloop
  endfacet
  facet normal 0 0 1
    outer loop
      vertex 11.313708498984761 11.313708498984761 30
      vertex 10.040916292848975 10.040916292848975 30
      vertex 11.265617432135539 8.644412291923834 30
    endloop
  endfacet
  facet normal 0 0 1
    outer loop
      vertex 11.313708498984761 11.313708498984761 30
      vertex 11.265617432135539 8.644412291923834 30
      vertex 12.297560733739028 7.1 30
    endloop
  endfacet
  facet normal 0 0 1
    outer loop
      vertex 11.313708498984761 11.313708498984761 30
      vertex 9.74018286413953 12.693653444659763 30
      vertex 10.040916292848975 10.040916292848975 30
    endloop
  endfacet
  facet normal 0 0 1
    outer loop
      vertex 8 13.856406460551018 30
      vertex 8.644412291923834 11.265617432135539 30
      vertex 9.74018286413953 12.693653444659763 30
    endloop
  endfacet
  facet normal 0 0 1
    outer loop
      vertex 11.313708498984761 11.313708498984761 30
      vertex 12.297560733739028 7.1 30
      vertex 12.693653444659763 9.74018286413953 30
    endloop
  endfacet
  facet normal 0.7518398074789774 0.659345815100069 -2.5019599619186073e-20
    outer loop
      vertex -10.040916292848975 -10.040916292848975 0
      vertex -11.265617432135539 -8.644412291923834 0
      vertex -11.265617432135539 -8.644412291923834 30
    endloop
  endfacet
  facet normal 0.659345815100069 0.7518398074789774 0
    outer loop
      vertex -10.040916292848975 -10.040916292848975 0
      vertex -10.040916292848975 -10.040916292848975 30
      vertex -8.644412291923834 -11.265617432135539 0
    endloop
  endfacet
  facet normal 0.5555702330196018 0.8314696123025456 0
    outer loop
      vertex -8.644412291923834 -11.265617432135539 0
      vertex -8.644412291923834 -11.265617432135539 30
      vertex -7.1 -12.297560733739028 0
    endloop
  endfacet
  facet normal 0.9469301294951054 0.3214394653031625 -3.9074955170562546e-19
    outer loop
      vertex -13.11908936166027 -5.434104739584274 0
      vertex -13.71614673330477 -3.6752304404557945 0
      vertex -13.71614673330477 -3.6752304404557945 30
    endloop
  endfacet
  facet normal 0.8968727415326884 0.4422886902190011 1.5399413135301856e-19
    outer loop
      vertex -12.297560733739028 -7.1 0
      vertex -13.11908936166027 -5.434104739584274 0
      vertex -13.11908936166027 -5.434104739584274 30
    endloop
  endfacet
  facet normal 0.9978589232386035 0.06540312923014364 -1.1994376157097356e-20
    outer loop
      vertex -14.078517031508106 -1.8534719295247322 0
      vertex -14.2 0 0
      vertex -14.2 0 30
    endloop
  endfacet
  facet normal 0.9807852804032307 0.1950903220161272 6.867520839300808e-19
    outer loop
      vertex -13.71614673330477 -3.6752304404557945 0
      vertex -14.078517031508106 -1.8534719295247322 0
      vertex -14.078517031508106 -1.8534719295247322 30
    endloop
  endfacet
  facet normal 0.8314696123025456 0.5555702330196018 -8.505950854926329e-19
    outer loop
      vertex -11.265617432135539 -8.644412291923834 0
      vertex -12.297560733739028 -7.1 0
      vertex -12.297560733739028 -7.1 30
    endloop
  endfacet
  facet normal 0.4422886902190011 0.8968727415326884 0
    outer loop
      vertex -7.1 -12.297560733739028 0
      vertex -7.1 -12.297560733739028 30
      vertex -5.434104739584274 -13.11908936166027 0
    endloop
  endfacet
  facet normal 0.3214394653031625 0.9469301294951054 0
    outer loop
      vertex -5.434104739584274 -13.11908936166027 0
      vertex -5.434104739584274 -13.11908936166027 30
      vertex -3.6752304404557945 -13.71614673330477 0
    endloop
  endfacet
  facet normal 0.1950903220161272 0.9807852804032307 0
    outer loop
      vertex -3.6752304404557945 -13.71614673330477 0
      vertex -3.6752304404557945 -13.71614673330477 30
      vertex -1.8534719295247322 -14.078517031508106 0
    endloop
  endfacet
  facet normal 0.06540312923014364 0.9978589232386035 0
    outer loop
      vertex -1.8534719295247322 -14.078517031508106 0
      vertex -1.8534719295247322 -14.078517031508106 30
      vertex 0 -14.2 0
    endloop
  endfacet
  facet normal 0.8314696123025456 0.5555702330196018 -8.505950854926329e-19
    outer loop
      vertex -12.297560733739028 -7.1 30
      vertex -11.265617432135539 -8.644412291923834 30
      vertex -11.265617432135539 -8.644412291923834 0
    endloop
  endfacet
  facet normal 0.7518398074789774 0.659345815100069 0
    outer loop
      vertex -10.040916292848975 -10.040916292848975 0
      vertex -11.265617432135539 -8.644412291923834 30
      vertex -10.040916292848975 -10.040916292848975 30
    endloop
  endfacet
  facet normal 0.659345815100069 0.7518398074789774 0
    outer loop
      vertex -8.644412291923834 -11.265617432135539 0
      vertex -10.040916292848975 -10.040916292848975 30
      vertex -8.644412291923834 -11.265617432135539 30
    endloop
  endfacet
  facet normal 0.8968727415326884 0.4422886902190011 1.5399413135301856e-19
    outer loop
      vertex -13.11908936166027 -5.434104739584274 30
      vertex -12.297560733739028 -7.1 30
      vertex -12.297560733739028 -7.1 0
    endloop
  endfacet
  facet normal 0.9469301294951054 0.3214394653031625 0
    outer loop
      vertex -13.11908936166027 -5.434104739584274 0
      vertex -13.71614673330477 -3.6752304404557945 30
      vertex -13.11908936166027 -5.434104739584274 30
    endloop
  endfacet
  facet normal 0.9978589232386035 0.06540312923014364 0
    outer loop
      vertex -14.078517031508106 -1.8534719295247322 0
      vertex -14.2 0 30
      vertex -14.078517031508106 -1.8534719295247322 30
    endloop
  endfacet
  facet normal 0.9807852804032307 0.1950903220161272 6.867520839300808e-19
    outer loop
      vertex -14.078517031508106 -1.8534719295247322 30
      vertex -13.71614673330477 -3.6752304404557945 30
      vertex -13.71614673330477 -3.6752304404557945 0
    endloop
  endfacet
  facet normal 0.4422886902190011 0.8968727415326884 0
    outer loop
      vertex -5.434104739584274 -13.11908936166027 0
      vertex -7.1 -12.297560733739028 30
      vertex -5.434104739584274 -13.11908936166027 30
    endloop
  endfacet
  facet normal 0.3214394653031625 0.9469301294951054 0
    outer loop
      vertex -3.6752304404557945 -13.71614673330477 0
      vertex -5.434104739584274 -13.11908936166027 30
      vertex -3.6752304404557945 -13.71614673330477 30
    endloop
  endfacet
  facet normal 0.5555702330196018 0.8314696123025456 0
    outer loop
      vertex -7.1 -12.297560733739028 0
      vertex -8.644412291923834 -11.265617432135539 30
      vertex -7.1 -12.297560733739028 30
    endloop
  endfacet
  facet normal 0.1950903220161272 0.9807852804032307 0
    outer loop
      vertex -1.8534719295247322 -14.078517031508106 0
      vertex -3.6752304404557945 -13.71614673330477 30
      vertex -1.8534719295247322 -14.078517031508106 30
    endloop
  endfacet
  facet normal 0.06540312923014364 0.9978589232386035 0
    outer loop
      vertex 0 -14.2 0
      vertex -1.8534719295247322 -14.078517031508106 30
      vertex 0 -14.2 30
    endloop
  endfacet
  facet normal 0.9978589232386035 -0.06540312923014364 1.1994376157097356e-20
    outer loop
      vertex -14.2 0 0
      vertex -14.078517031508106 1.8534719295247322 0
      vertex -14.078517031508106 1.8534719295247322 30
    endloop
  endfacet
  facet normal 0.9807852804032307 -0.1950903220161272 -6.867520839300808e-19
    outer loop
      vertex -14.078517031508106 1.8534719295247322 0
      vertex -13.71614673330477 3.6752304404557945 0
      vertex -13.71614673330477 3.6752304404557945 30
    endloop
  endfacet
  facet normal 0.9469301294951054 -0.3214394653031625 3.9074955170562546e-19
    outer loop
      vertex -13.71614673330477 3.6752304404557945 0
      vertex -13.11908936166027 5.434104739584274 0
      vertex -13.11908936166027 5.434104739584274 30
    endloop
  endfacet
  facet normal 0.8968727415326884 -0.4422886902190011 -1.5399413135301856e-19
    outer loop
      vertex -13.11908936166027 5.434104739584274 0
      vertex -12.297560733739028 7.1 0
      vertex -12.297560733739028 7.1 30
    endloop
  endfacet
  facet normal 0.8314696123025456 -0.5555702330196018 8.505950854926329e-19
    outer loop
      vertex -12.297560733739028 7.1 0
      vertex -11.265617432135539 8.644412291923834 0
      vertex -11.265617432135539 8.644412291923834 30
    endloop
  endfacet
  facet normal 0.7518398074789774 -0.659345815100069 2.5019599619186073e-20
    outer loop
      vertex -11.265617432135539 8.644412291923834 0
      vertex -10.040916292848975 10.040916292848975 0
      vertex -10.040916292848975 10.040916292848975 30
    endloop
  endfacet
  facet normal 0.659345815100069 -0.7518398074789774 0
    outer loop
      vertex -8.644412291923834 11.265617432135539 0
      vertex -8.644412291923834 11.265617432135539 30
      vertex -10.040916292848975 10.040916292848975 0
    endloop
  endfacet
  facet normal 0.5555702330196018 -0.8314696123025456 0
    outer loop
      vertex -7.1 12.297560733739028 0
      vertex -7.1 12.297560733739028 30
      vertex -8.644412291923834 11.265617432135539 0
    endloop
  endfacet
  facet normal 0.4422886902190011 -0.8968727415326884 0
    outer loop
      vertex -5.434104739584274 13.11908936166027 0
      vertex -5.434104739584274 13.11908936166027 30
      vertex -7.1 12.297560733739028 0
    endloop
  endfacet
  facet normal 0.3214394653031625 -0.9469301294951054 0
    outer loop
      vertex -3.6752304404557945 13.71614673330477 0
      vertex -3.6752304404557945 13.71614673330477 30
      vertex -5.434104739584274 13.11908936166027 0
    endloop
  endfacet
  facet normal 0.1950903220161272 -0.9807852804032307 0
    outer loop
      vertex -1.8534719295247322 14.078517031508106 0
      vertex -1.8534719295247322 14.078517031508106 30
      vertex -3.6752304404557945 13.71614673330477 0
    endloop
  endfacet
  facet normal 0.06540312923014364 -0.9978589232386035 1.1994376157097356e-20
    outer loop
      vertex -1.8534719295247322 14.078517031508106 0
      vertex 0 14.2 0
      vertex 0 14.2 30
    endloop
  endfacet
  facet normal 0.9978589232386035 -0.06540312923014364 0
    outer loop
      vertex -14.2 0 0
      vertex -14.078517031508106 1.8534719295247322 30
      vertex -14.2 0 30
    endloop
  endfacet
  facet normal 0.9807852804032307 -0.1950903220161272 -6.867520839300808e-19
    outer loop
      vertex -13.71614673330477 3.6752304404557945 30
      vertex -14.078517031508106 1.8534719295247322 30
      vertex -14.078517031508106 1.8534719295247322 0
    endloop
  endfacet
  facet normal 0.9469301294951054 -0.3214394653031625 3.9074955170562546e-19
    outer loop
      vertex -13.11908936166027 5.434104739584274 30
      vertex -13.71614673330477 3.6752304404557945 30
      vertex -13.71614673330477 3.6752304404557945 0
    endloop
  endfacet
  facet normal 0.8968727415326884 -0.4422886902190011 -1.5399413135301856e-19
    outer loop
      vertex -12.297560733739028 7.1 30
      vertex -13.11908936166027 5.434104739584274 30
      vertex -13.11908936166027 5.434104739584274 0
    endloop
  endfacet
  facet normal 0.8314696123025456 -0.5555702330196018 8.505950854926329e-19
    outer loop
      vertex -11.265617432135539 8.644412291923834 30
      vertex -12.297560733739028 7.1 30
      vertex -12.297560733739028 7.1 0
    endloop
  endfacet
  facet normal 0.7518398074789774 -0.659345815100069 2.5019599619186073e-20
    outer loop
      vertex -10.040916292848975 10.040916292848975 30
      vertex -11.265617432135539 8.644412291923834 30
      vertex -11.265617432135539 8.644412291923834 0
    endloop
  endfacet
  facet normal 0.659345815100069 -0.7518398074789774 0
    outer loop
      vertex -10.040916292848975 10.040916292848975 0
      vertex -8.644412291923834 11.265617432135539 30
      vertex -10.040916292848975 10.040916292848975 30
    endloop
  endfacet
  facet normal 0.5555702330196018 -0.8314696123025456 0
    outer loop
      vertex -8.644412291923834 11.265617432135539 0
      vertex -7.1 12.297560733739028 30
      vertex -8.644412291923834 11.265617432135539 30
    endloop
  endfacet
  facet normal 0.4422886902190011 -0.8968727415326884 0
    outer loop
      vertex -7.1 12.297560733739028 0
      vertex -5.434104739584274 13.11908936166027 30
      vertex -7.1 12.297560733739028 30
    endloop
  endfacet
  facet normal 0.3214394653031625 -0.9469301294951054 0
    outer loop
      vertex -5.434104739584274 13.11908936166027 0
      vertex -3.6752304404557945 13.71614673330477 30
      vertex -5.434104739584274 13.11908936166027 30
    endloop
  endfacet
  facet normal 0.1950903220161272 -0.9807852804032307 0
    outer loop
      vertex -3.6752304404557945 13.71614673330477 0
      vertex -1.8534719295247322 14.078517031508106 30
      vertex -3.6752304404557945 13.71614673330477 30
    endloop
  endfacet
  facet normal 0.06540312923014364 -0.9978589232386035 1.1994376157097356e-20
    outer loop
      vertex 0 14.2 30
      vertex -1.8534719295247322 14.078517031508106 30
      vertex -1.8534719295247322 14.078517031508106 0
    endloop
  endfacet
  facet normal -0.06540312923014364 0.9978589232386035 0
    outer loop
      vertex 0 -14.2 30
      vertex 1.8534719295247322 -14.078517031508106 0
      vertex 0 -14.2 0
    endloop
  endfacet
  facet normal -0.1950903220161272 0.9807852804032307 0
    outer loop
      vertex 1.8534719295247322 -14.078517031508106 0
      vertex 1.8534719295247322 -14.078517031508106 30
      vertex 3.6752304404557945 -13.71614673330477 0
    endloop
  endfacet
  facet normal -0.3214394653031625 0.9469301294951054 0
    outer loop
      vertex 3.6752304404557945 -13.71614673330477 0
      vertex 3.6752304404557945 -13.71614673330477 30
      vertex 5.434104739584274 -13.11908936166027 0
    endloop
  endfacet
  facet normal -0.4422886902190011 0.8968727415326884 0
    outer loop
      vertex 5.434104739584274 -13.11908936166027 0
      vertex 5.434104739584274 -13.11908936166027 30
      vertex 7.1 -12.297560733739028 0
    endloop
  endfacet
  facet normal -0.5555702330196018 0.8314696123025456 0
    outer loop
      vertex 7.1 -12.297560733739028 0
      vertex 7.1 -12.297560733739028 30
      vertex 8.644412291923834 -11.265617432135539 0
    endloop
  endfacet
  facet normal -0.659345815100069 0.7518398074789774 0
    outer loop
      vertex 8.644412291923834 -11.265617432135539 0
      vertex 8.644412291923834 -11.265617432135539 30
      vertex 10.040916292848975 -10.040916292848975 0
    endloop
  endfacet
  facet normal -0.7518398074789774 0.659345815100069 0
    outer loop
      vertex 10.040916292848975 -10.040916292848975 0
      vertex 10.040916292848975 -10.040916292848975 30
      vertex 11.265617432135539 -8.644412291923834 0
    endloop
  endfacet
  facet normal -0.8314696123025456 0.5555702330196018 8.505950854926329e-19
    outer loop
      vertex 12.297560733739028 -7.1 0
      vertex 11.265617432135539 -8.644412291923834 0
      vertex 11.265617432135539 -8.644412291923834 30
    endloop
  endfacet
  facet normal -0.8968727415326884 0.4422886902190011 -1.5399413135301856e-19
    outer loop
      vertex 13.11908936166027 -5.434104739584274 0
      vertex 12.297560733739028 -7.1 0
      vertex 12.297560733739028 -7.1 30
    endloop
  endfacet
  facet normal -0.9469301294951054 0.3214394653031625 3.9074955170562546e-19
    outer loop
      vertex 13.71614673330477 -3.6752304404557945 0
      vertex 13.11908936166027 -5.434104739584274 0
      vertex 13.11908936166027 -5.434104739584274 30
    endloop
  endfacet
  facet normal -0.9807852804032307 0.1950903220161272 -6.867520839300808e-19
    outer loop
      vertex 14.078517031508106 -1.8534719295247322 0
      vertex 13.71614673330477 -3.6752304404557945 0
      vertex 13.71614673330477 -3.6752304404557945 30
    endloop
  endfacet
  facet normal -0.9978589232386035 0.06540312923014364 0
    outer loop
      vertex 14.078517031508106 -1.8534719295247322 0
      vertex 14.078517031508106 -1.8534719295247322 30
      vertex 14.2 0 0
    endloop
  endfacet
  facet normal -0.06540312923014364 0.9978589232386035 0
    outer loop
      vertex 1.8534719295247322 -14.078517031508106 0
      vertex 0 -14.2 30
      vertex 1.8534719295247322 -14.078517031508106 30
    endloop
  endfacet
  facet normal -0.1950903220161272 0.9807852804032307 0
    outer loop
      vertex 3.6752304404557945 -13.71614673330477 0
      vertex 1.8534719295247322 -14.078517031508106 30
      vertex 3.6752304404557945 -13.71614673330477 30
    endloop
  endfacet
  facet normal -0.3214394653031625 0.9469301294951054 0
    outer loop
      vertex 5.434104739584274 -13.11908936166027 0
      vertex 3.6752304404557945 -13.71614673330477 30
      vertex 5.434104739584274 -13.11908936166027 30
    endloop
  endfacet
  facet normal -0.4422886902190011 0.8968727415326884 0
    outer loop
      vertex 7.1 -12.297560733739028 0
      vertex 5.434104739584274 -13.11908936166027 30
      vertex 7.1 -12.297560733739028 30
    endloop
  endfacet
  facet normal -0.5555702330196018 0.8314696123025456 0
    outer loop
      vertex 8.644412291923834 -11.265617432135539 0
      vertex 7.1 -12.297560733739028 30
      vertex 8.644412291923834 -11.265617432135539 30
    endloop
  endfacet
  facet normal -0.659345815100069 0.7518398074789774 0
    outer loop
      vertex 10.040916292848975 -10.040916292848975 0
      vertex 8.644412291923834 -11.265617432135539 30
      vertex 10.040916292848975 -10.040916292848975 30
    endloop
  endfacet
  facet normal -0.7518398074789774 0.659345815100069 2.5019599619186073e-20
    outer loop
      vertex 10.040916292848975 -10.040916292848975 30
      vertex 11.265617432135539 -8.644412291923834 30
      vertex 11.265617432135539 -8.644412291923834 0
    endloop
  endfacet
  facet normal -0.8314696123025456 0.5555702330196018 8.505950854926329e-19
    outer loop
      vertex 11.265617432135539 -8.644412291923834 30
      vertex 12.297560733739028 -7.1 30
      vertex 12.297560733739028 -7.1 0
    endloop
  endfacet
  facet normal -0.8968727415326884 0.4422886902190011 -1.5399413135301856e-19
    outer loop
      vertex 12.297560733739028 -7.1 30
      vertex 13.11908936166027 -5.434104739584274 30
      vertex 13.11908936166027 -5.434104739584274 0
    endloop
  endfacet
  facet normal -0.9469301294951054 0.3214394653031625 3.9074955170562546e-19
    outer loop
      vertex 13.11908936166027 -5.434104739584274 30
      vertex 13.71614673330477 -3.6752304404557945 30
      vertex 13.71614673330477 -3.6752304404557945 0
    endloop
  endfacet
  facet normal -0.9807852804032307 0.1950903220161272 -6.867520839300808e-19
    outer loop
      vertex 13.71614673330477 -3.6752304404557945 30
      vertex 14.078517031508106 -1.8534719295247322 30
      vertex 14.078517031508106 -1.8534719295247322 0
    endloop
  endfacet
  facet normal -0.9978589232386035 0.06540312923014364 1.1994376157097356e-20
    outer loop
      vertex 14.078517031508106 -1.8534719295247322 30
      vertex 14.2 0 30
      vertex 14.2 0 0
    endloop
  endfacet
  facet normal -0.06540312923014364 -0.9978589232386035 0
    outer loop
      vertex 1.8534719295247322 14.078517031508106 0
      vertex 1.8534719295247322 14.078517031508106 30
      vertex 0 14.2 0
    endloop
  endfacet
  facet normal -0.1950903220161272 -0.9807852804032307 0
    outer loop
      vertex 3.6752304404557945 13.71614673330477 0
      vertex 3.6752304404557945 13.71614673330477 30
      vertex 1.8534719295247322 14.078517031508106 0
    endloop
  endfacet
  facet normal -0.3214394653031625 -0.9469301294951054 0
    outer loop
      vertex 5.434104739584274 13.11908936166027 0
      vertex 5.434104739584274 13.11908936166027 30
      vertex 3.6752304404557945 13.71614673330477 0
    endloop
  endfacet
  facet normal -0.4422886902190011 -0.8968727415326884 0
    outer loop
      vertex 7.1 12.297560733739028 0
      vertex 7.1 12.297560733739028 30
      vertex 5.434104739584274 13.11908936166027 0
    endloop
  endfacet
  facet normal -0.8314696123025456 -0.5555702330196018 -8.505950854926329e-19
    outer loop
      vertex 11.265617432135539 8.644412291923834 0
      vertex 12.297560733739028 7.1 0
      vertex 12.297560733739028 7.1 30
    endloop
  endfacet
  facet normal -0.9807852804032307 -0.1950903220161272 6.867520839300808e-19
    outer loop
      vertex 13.71614673330477 3.6752304404557945 0
      vertex 14.078517031508106 1.8534719295247322 0
      vertex 14.078517031508106 1.8534719295247322 30
    endloop
  endfacet
  facet normal -0.9978589232386035 -0.06540312923014364 0
    outer loop
      vertex 14.2 0 0
      vertex 14.2 0 30
      vertex 14.078517031508106 1.8534719295247322 0
    endloop
  endfacet
  facet normal -0.8968727415326884 -0.4422886902190011 1.5399413135301856e-19
    outer loop
      vertex 12.297560733739028 7.1 0
      vertex 13.11908936166027 5.434104739584274 0
      vertex 13.11908936166027 5.434104739584274 30
    endloop
  endfacet
  facet normal -0.9469301294951054 -0.3214394653031625 -3.9074955170562546e-19
    outer loop
      vertex 13.11908936166027 5.434104739584274 0
      vertex 13.71614673330477 3.6752304404557945 0
      vertex 13.71614673330477 3.6752304404557945 30
    endloop
  endfacet
  facet normal -0.5555702330196018 -0.8314696123025456 0
    outer loop
      vertex 8.644412291923834 11.265617432135539 0
      vertex 8.644412291923834 11.265617432135539 30
      vertex 7.1 12.297560733739028 0
    endloop
  endfacet
  facet normal -0.659345815100069 -0.7518398074789774 -2.5019599619186073e-20
    outer loop
      vertex 8.644412291923834 11.265617432135539 0
      vertex 10.040916292848975 10.040916292848975 0
      vertex 10.040916292848975 10.040916292848975 30
    endloop
  endfacet
  facet normal -0.7518398074789774 -0.659345815100069 -2.5019599619186073e-20
    outer loop
      vertex 10.040916292848975 10.040916292848975 0
      vertex 11.265617432135539 8.644412291923834 0
      vertex 11.265617432135539 8.644412291923834 30
    endloop
  endfacet
  facet normal -0.06540312923014364 -0.9978589232386035 0
    outer loop
      vertex 0 14.2 0
      vertex 1.8534719295247322 14.078517031508106 30
      vertex 0 14.2 30
    endloop
  endfacet
  facet normal -0.1950903220161272 -0.9807852804032307 0
    outer loop
      vertex 1.8534719295247322 14.078517031508106 0
      vertex 3.6752304404557945 13.71614673330477 30
      vertex 1.8534719295247322 14.078517031508106 30
    endloop
  endfacet
  facet normal -0.5555702330196018 -0.8314696123025456 0
    outer loop
      vertex 7.1 12.297560733739028 0
      vertex 8.644412291923834 11.265617432135539 30
      vertex 7.1 12.297560733739028 30
    endloop
  endfacet
  facet normal -0.3214394653031625 -0.9469301294951054 0
    outer loop
      vertex 3.6752304404557945 13.71614673330477 0
      vertex 5.434104739584274 13.11908936166027 30
      vertex 3.6752304404557945 13.71614673330477 30
    endloop
  endfacet
  facet normal -0.4422886902190011 -0.8968727415326884 0
    outer loop
      vertex 5.434104739584274 13.11908936166027 0
      vertex 7.1 12.297560733739028 30
      vertex 5.434104739584274 13.11908936166027 30
    endloop
  endfacet
  facet normal -0.9807852804032307 -0.1950903220161272 6.867520839300808e-19
    outer loop
      vertex 14.078517031508106 1.8534719295247322 30
      vertex 13.71614673330477 3.6752304404557945 30
      vertex 13.71614673330477 3.6752304404557945 0
    endloop
  endfacet
  facet normal -0.9978589232386035 -0.06540312923014364 -1.1994376157097356e-20
    outer loop
      vertex 14.2 0 30
      vertex 14.078517031508106 1.8534719295247322 30
      vertex 14.078517031508106 1.8534719295247322 0
    endloop
  endfacet
  facet normal -0.9469301294951054 -0.3214394653031625 0
    outer loop
      vertex 13.11908936166027 5.434104739584274 0
      vertex 13.71614673330477 3.6752304404557945 30
      vertex 13.11908936166027 5.434104739584274 30
    endloop
  endfacet
  facet normal -0.8968727415326884 -0.4422886902190011 1.5399413135301856e-19
    outer loop
      vertex 13.11908936166027 5.434104739584274 30
      vertex 12.297560733739028 7.1 30
      vertex 12.297560733739028 7.1 0
    endloop
  endfacet
  facet normal -0.659345815100069 -0.7518398074789774 0
    outer loop
      vertex 8.644412291923834 11.265617432135539 0
      vertex 10.040916292848975 10.040916292848975 30
      vertex 8.644412291923834 11.265617432135539 30
    endloop
  endfacet
  facet normal -0.7518398074789774 -0.659345815100069 0
    outer loop
      vertex 10.040916292848975 10.040916292848975 0
      vertex 11.265617432135539 8.644412291923834 30
      vertex 10.040916292848975 10.040916292848975 30
    endloop
  endfacet
  facet normal -0.8314696123025456 -0.5555702330196018 -8.505950854926329e-19
    outer loop
      vertex 12.297560733739028 7.1 30
      vertex 11.265617432135539 8.644412291923834 30
      vertex 11.265617432135539 8.644412291923834 0
    endloop
  endfacet
endsolid OpenSCAD_Model
